# FamiTracker text export 0.4.2

# Song information
TITLE           "What Remains"
AUTHOR          ""
COPYRIGHT       ""

# Song comment
COMMENT ""

# Global settings
MACHINE         0
FRAMERATE       0
EXPANSION       0
VIBRATO         1
SPLIT           32

# Macros
MACRO       0   0  -1  -1   0 : 12 15 11 2
MACRO       0   1  -1  -1   0 : 14 15 15 15 14 12 9 7 5 4 3 2 1 1
MACRO       0   2  -1  -1   0 : 15 14 11 5 3
MACRO       0   3  -1  -1   0 : 12 15 15 12 7 5 1
MACRO       0   4  -1  -1   0 : 15
MACRO       0   5  -1  -1   0 : 15 0
MACRO       0   6  -1  -1   0 : 15
MACRO       0   7  -1  -1   0 : 15 15 13 8 0
MACRO       1   0  -1  -1   2 : 0 1 2 3 4 5 6
MACRO       1   1  -1  -1   0 : 0 -12
MACRO       2   0  -1  -1   0 : 5 -6 5
MACRO       2   2  -1  -1   0 : 8 11
MACRO       4   0  -1  -1   0 : 3
MACRO       4   1  -1  -1   0 : 2
MACRO       4   2  -1  -1   0 : 0 0
MACRO       4   3  -1  -1   0 : 0 2
MACRO       4   4  -1  -1   0 : 2
MACRO       4   5  -1  -1   0 : 2

# DPCM samples
DPCMDEF   0  3409 "snareverb"
DPCM : FF FF 10 00 00 00 00 E0 FE FF EF BF FF FF FF FF 7F 18 03 80 00 00 80 00 00 00 00 00 F0 70 00 30
DPCM : 60 B0 F7 FF DF 87 CF FF FF 03 84 33 F2 FF FF FF CF FF FE 80 11 08 F8 3C FF FF FF FF FF FF 83 00
DPCM : 00 00 00 00 00 00 00 40 7F FF FF FF CF 1F 00 00 00 00 00 00 30 EC FF FF FF FF 36 87 80 01 30 E0
DPCM : 83 F7 F9 39 FE FF 3F 36 9E 3B 0E 18 C3 F3 F0 AB 7E E6 7F 7C 10 C4 00 00 40 C1 E0 CF FF FF FF FF
DPCM : FF FF 2F 00 00 00 00 00 00 00 F8 FF FF FF FF 1F 02 38 00 00 00 00 00 00 00 20 FF FF FF FF FF FF
DPCM : 0F 8C 08 10 00 80 12 9C 7D F7 7F 70 5E F9 BF 3D 4E 7C 56 98 91 01 03 C6 C7 83 41 03 0F EE FF FC
DPCM : B3 9C FC DC 38 3F 22 20 60 C0 FC EF EF DD E1 DB 01 03 00 01 02 06 08 ED DF 3F 1F FC 3F 3F 00 10
DPCM : 00 00 00 00 00 00 E7 FC FF FF F7 FF DF 06 01 00 31 04 FC DF 3F 4C B8 F1 FF FF 3E 7E 30 66 C6 7D
DPCM : EE 39 0F 01 80 41 E6 8C 03 4F 00 8E B1 FF F9 60 3C 20 0C 00 00 0C 07 1E 03 7F 7F 7E F3 E6 FB F9
DPCM : 3C 22 23 C0 00 18 C0 9D 0F 8D FD FF FE 87 F7 7F 3C EC 1F F3 38 60 00 40 00 70 30 40 CC E1 D3 FB
DPCM : FF FF E3 3F 67 0E E1 1C 61 00 00 9C F0 FF FF FF 7F 02 38 F3 F1 46 00 83 C4 B8 FF 81 7B 61 17 F6
DPCM : FF FA 04 09 00 00 20 00 61 9F 7F FE 01 DF 0C 81 E8 66 80 01 C8 7B E7 FF E7 F9 E3 03 F3 4E F2 81
DPCM : 31 39 00 82 E4 1B 7F FE 7F C0 70 C0 03 FF BF FF E2 CF 27 03 D1 C1 00 00 02 60 F3 7F CF 3F FF 1F
DPCM : 9F 9F 3F 07 03 00 00 20 C0 87 38 CF 1C C0 1F 36 1E 13 8C 33 D8 3F 7F FC EF D8 73 D8 39 14 00 30
DPCM : 00 FE 3C FC FE F3 BF 73 C0 09 01 00 A0 01 80 F1 F1 EE 3F FE FC FF 67 10 B8 39 1E 31 F2 F1 33 C6
DPCM : FF FF CF 00 00 01 61 00 E1 C7 46 84 BD 9F 9F 1F 9E 19 24 06 8C 63 FC 36 88 90 7B 66 7F 7C FC C3
DPCM : 48 FF 9C FB FF 77 FF 23 C6 40 0D C0 04 01 00 00 60 62 67 23 C7 90 C1 CF 8F CF BF 98 77 84 87 CF
DPCM : 3D 18 3C 3F 37 07 DF 7F 26 B0 0E 9C 3F E7 7F BB FD 1A 40 FC 1C 80 0D 18 0C 30 00 10 EE E7 0C C8
DPCM : FB CC 07 FF FF 23 0C 80 F9 C7 38 CE 4F 30 18 60 FE B3 9D 61 8E 04 8B BB E3 C0 03 03 63 CF 3D 8E
DPCM : 1F 0E 1C 3C 1E 7F 9E 77 C0 76 D2 7B DE 78 EE 00 00 C8 71 1C 11 86 33 F4 3F 7F FE FF 1E 73 E0 01
DPCM : 00 20 D0 20 DB 48 E0 BD A3 FF 77 FF 7F E0 F8 19 B8 43 13 33 60 F8 4E 46 5F 88 10 DC 01 51 82 D3
DPCM : 13 C7 1C B3 9B B0 87 F7 14 3C 04 DC EE 1C F3 13 8F CD 77 76 33 C4 82 C3 FE 71 96 F9 3F 38 27 3C
DPCM : C3 E0 63 8C 41 C9 A2 C1 19 E7 3B 27 87 C3 0F 0F CE FF 9C DC 56 FC 3D 18 30 0C 10 32 21 EC F4 F9
DPCM : 8C E1 CE 8D 81 1B 07 0E 04 08 F2 C3 5C 9C 7F FF 18 A7 39 3D 10 48 F8 41 18 7B DE FF 66 9E E3 FD
DPCM : 1B 0E F1 03 20 C6 90 F3 BC E7 9E FF 98 31 C4 61 E6 25 04 CC C4 31 FF 9B 77 9A 47 F6 17 FC 9D 1E
DPCM : 70 10 00 02 10 3D 4A C0 40 98 BC F8 FB DF 33 07 F0 79 C8 8C 62 C2 00 10 E3 7B F3 71 FF B9 A3 E7
DPCM : F9 FB E2 1C C9 95 4C 28 7F 87 39 67 88 F3 E7 E7 8C F3 8C 01 C7 0E 87 17 06 08 C1 9C 8B 8F DF 98
DPCM : 3B 26 4C DD 38 44 04 06 69 30 C8 E3 9E 01 CE F8 5F 1E C7 F7 E3 1C 68 FC 30 80 38 DB 18 39 7A F6
DPCM : E6 E3 CD ED CF 1C 93 FF E1 02 46 0E E7 E6 D8 9C 8F 89 03 7E 06 26 08 57 C4 00 B8 31 8F F9 F0 78
DPCM : E2 C6 F9 9C 9B 0C 30 E0 39 46 FC FF 9C E7 9C 79 9F 71 F6 39 64 30 E0 3C 60 C0 9C A8 31 E1 F3 CF
DPCM : A6 07 E5 49 82 C3 F1 60 0A 02 C7 5D DC F8 98 2F CF 93 FB 33 27 E3 C5 35 3F 48 FC FC 30 88 A1 D6
DPCM : 81 F0 B0 CF 1C E5 B9 D3 09 61 B4 71 80 21 86 0C E4 31 FB 9D C3 DD 7F 8E 2A C7 C9 C9 70 C1 9D EB
DPCM : 9E 73 7E 79 8F 9D 8E B8 13 C0 D0 84 13 86 AC 63 8E 62 CB 98 43 72 C7 2C 18 CE 30 8C 1C 1F 1E 23
DPCM : 55 E2 CF E7 CE E5 CF 98 69 F3 3B 37 1A A4 E6 C0 C9 65 1F 98 19 1B 2F F7 86 43 85 44 2E B3 AA B9
DPCM : 55 18 23 4E 2C 1C 18 67 32 C9 7D F3 FF E5 C4 FD 80 3B 4E 38 34 08 3C C7 74 5C 3B 9E 1B EE 6C A3
DPCM : 0C 51 58 70 30 71 E3 D9 C2 38 23 FE 76 AC 03 CF B5 EC B1 7F 7A E3 60 C3 CB C4 1C 64 11 8A 09 2D
DPCM : 26 37 3B 75 9C 64 B6 29 13 D9 50 2A 61 AB B3 C9 4E 72 2E 67 9B DE E6 A6 D5 1B CE EC 75 66 33 C1
DPCM : 95 C9 1C 36 7C 38 EC B8 27 38 43 C5 31 86 32 61 CE 44 9C E1 85 38 E2 5C 37 0E F0 B8 38 D2 37 9E
DPCM : 0B E3 69 E3 EB 23 07 0F 8F 4E 67 DF CF 9E 3C 1C 3E 97 38 9D 72 58 00 5C 2C EE 18 C7 98 C2 1C 37
DPCM : AE 38 C3 31 06 97 F6 BC 73 8C E7 C4 33 D3 3C E6 80 73 88 33 8E 59 4E 1C 67 99 C3 AB E9 BC E0 E1
DPCM : A1 E2 93 A3 6C A3 74 18 8C 8B 1E 33 36 8E 3F 97 73 BE EC C4 88 31 3C 62 89 31 07 B3 38 95 CD 47
DPCM : 8F 31 5E 35 C5 B8 69 1E 69 9A F1 DA 31 AE 9C E3 E4 71 CE AB CB B1 A3 83 C7 C6 E3 48 05 AD 8C A5
DPCM : A8 A9 2E 8E 33 6A 4E 6C 0A DD 50 53 49 26 F7 C6 8A 57 9C EA 8A 31 CF 1A CE A2 8D AD A8 3C 2B A5
DPCM : 8D 3B 5A 62 E9 E0 78 C2 85 AD 58 5B 43 E7 C3 07 97 AC AB 8F E3 D5 99 1F 18 33 57 0E 1D 62 3C 71
DPCM : 98 3E DC B5 C6 71 CE 38 A3 38 31 86 22 4A 32 8E 78 CC 1C 77 98 5D 3E 7A F8 32 EE 38 B2 AC AA 4C
DPCM : D1 D8 43 F3 32 A7 F6 66 E6 4C 8D 95 89 A1 29 32 22 4C D5 E4 9C 73 9D 73 B5 9A A6 A5 C3 8C 0C 1D
DPCM : B3 9A 93 2B 2F 7B EC 6E EC 9C DD 98 38 1D 33 56 66 CA 96 46 9C 58 F4 18 B1 38 31 39 33 C6 9C CA
DPCM : E2 C2 83 DB 1C 63 63 69 46 26 D6 98 55 CE 32 C6 99 9C AD 4E 3C E7 C8 A3 27 AB 63 53 E7 58 AA 9A
DPCM : A6 1E 1B AE 39 68 66 9A FA E6 B8 6D D9 D8 32 76 27 55 86 1C 68 E3 E0 9C 35 8E 31 E4 4E 32 2C C3
DPCM : 98 42 58 65 67 71 CB 71 4E CE AA 99 E3 09 27 86 1B B6 55 CE 8B ED D8 79 BC A5 D2 31 67 2C 62 9C
DPCM : 34 39 62 DC AB C6 9C BA 7C CE 31 77 86 33 62 30 9A 94 38 9E A9 B8 71 5D A5 CE 71 E6 8C 31 D3 64
DPCM : 70 54 8C B9 C6 5C F5 32 A7 D3 62 AE 71 CC E1 C1 39 A7 B8 E3 4A 32 27 63 D5 62 A5 2A 93 1A D3 A9
DPCM : 0E CB 89 E3 B0 A8 49 53 D3 E2 5C B9 4E AD AB 99 E5 AA 34 D5 94 AA 6A E2 8A B3 A6 2B AB 75 55 AB
DPCM : 99 6C 66 8A 93 1A 1B 62 AA 54 D3 CA D2 CA A9 AA A5 5E 55 4B AC 1C 1D CB 92 9A A6 2A 23 AB 12 A7
DPCM : 1C A7 9C 71 34 B5 AC 71 E5 39 66 5A B5 52 59 2D 56 B6 B2 D4 A8 D5 D4 CA AA 63 4F 99 C6 D6 65 1E
DPCM : AD 1C 31 99 2A 47 A3 A9 2A AB CA AA AA 99 2A AB 9A 66 4E 9A 9A 8E A9 AA AD AA AA E2 D4 D4 19 BA
DPCM : 58 55 9A B2 2A AB AA 32 4D 99 46 B1 AA 9A 72 AA 71 5C 69 32 6B E6 2C 66 F5 A2 C5 49 1D 6B 96 59
DPCM : 6B 99 66 96 D6 CA 4A AB 6A 95 2B 73 5D A6 8C 99 C9 46 95 8E 53 99 26 8E 5A AA 94 63 8E 9A AC F2
DPCM : AA 5A E6 58 D3 B4 99 A6 26 CA A2 A4 AC E4 98 B5 B9 39 AB 3A 65 CB 4C 2E D6 94 C9 2A 2B AB B2 4A
DPCM : 4D 8E 1C ED 98 A9 95 AE AA 32 AB 3A 8E 35 CB A8 B2 2C 53 56 B3 AC AA 8E 9D B5 18 27 2B 63 A6 AA
DPCM : 6C 5A CD A8 79 B5 69 5A 69 D2 52 A6 5C C5 B1 A4 AA AA 52 D3 AA 62 8C 32 D5 70 69 B3 A6 99 D3 DA
DPCM : AA A5 99 9A AA 4C A3 A6 96 55 DA CC AA A6 99 AA AA AA AA AA AA AA AA AA 55 55 55 59 59 A5 A6 AA
DPCM : AA AA AA AA AA AA 6A B6 6A A9 65 53 73 4C 2B D5 8C A9 A5 AA 52 A5 AA CA 54 55 D5 52 4B AB 4A 55
DPCM : 9A 95 A6 89 A6 32 A5 B2 E3 AC 56 56 B5 56 AB AA 99 95 35 53 A7 6A 56 55 A5 56 8E 4D 55 35 55 92
DPCM : 65 AA AA AC 4C AD 58 A9 69 55 D5 52 53 D5 94 AD AA AA 56 96 4E AB 6A CD 2A 9D 95 5A C9 52 35 71
DPCM : D4 54 69 AA AA AA AA 2A 2B AB 4A A5 AA C6 AA AC 2A AD AA AA AA 69 66 5C 55 56 D5 68 D5 AC B2 AA
DPCM : 6A DA B2 AC 2A CB 54 A9 AA AA AA AA AA A9 96 5A 53 96 55 AA AA AA AA 4A 55 CD AC CA AA AA A6 E9
DPCM : AC B2 54 95 A6 AA 2A 5A 55 4D 53 AB AA 66 56 D5 5A A9 4A 59 A6 A9 CA 54 E5 98 65 95 AD AA AA AA
DPCM : AA AA AA AA AA AA AA CC AA AA AA 66 95 AA AA A9 AA 55 35 A9 AA AA 52 AD AA AA AA 2A AD 96 56 AB
DPCM : D6 2C A6 D4 AA 54 3A A6 AA 52 99 5A AD AA D4 B2 AA AA AA 6A 6A 9A AA AA AA AA AA AA AA AA AA AA
DPCM : AA 6A 55 E5 6A B1 AA AA CA B2 94 AA AA 4A 53 A6 69 95 65 CD CA AA CA AA AA 4A 55 2A AB 54 53 AB
DPCM : AA 56 B5 B4 AA AA 56 AD 2A D5 94 9A AA AA AA AA AA AA AA AA AA 6A 55 AD 6A AA AA CC B4 AA 54 A5
DPCM : AA AA 59 66 55 B3 CC 54 55 AA AA AA AA AA 2A AB AA AA CA AA 8A 25 A7 66 55 95 65 55 D5 4C B3 66
DPCM : 9A AA AA 52 AD AA AA AA AA AA AA 6A 55 4D 33 A5 AA CA B2 AA AA AA AA AA AA 6A 55 55 A9 AA B4 AA
DPCM : AA AA D6 2A 55 55 AD B4 4A 55 95 AA AA AA AA 96 A9 66 A5 59 55 A9 AA AA AA 2C D3 4C B5 AA AA AA
DPCM : 2A AB 2C 53 55 D5 D4 32 4D AB AA AA AA AA AA AA AA AA AA AA 6A 65 55 AD AA AA AA 54 A9 AA 52 65
DPCM : A9 55 A5 55 B3 AA 5A A6 56 55 AA AA AA AA AA 54 D5 AC AA AA AA 6A 6A 55 35 AD AA A6 AA AA 4A A5
DPCM : 99 A6 AA 4A 55 55 55 35 AD AA AA AA 6A AA AA AA AA AA AA CC AA AA AA AA A6 56 55 55 55 D5 AA 8C
DPCM : 55 55 95 AA AA AA 34 4D AD AA AA 32 D5 54 D3 AA AA 4C 55 99 95 55 55 AD AA AA AA 6A 4D 2B AB AA
DPCM : B4 9A AA 6A B6 B4 54 55 59 9A AA CC 52 53 65 AA AA AA AA B2 4C 55 D5 34 55 95 56 99 AA AA 69 95
DPCM : 55 56 53 D5 34 53 55 4D AB AA AA AA AA AA AA AA AA 95 A6 AA AA AA 56 55 59 65 65 66 AA AA 56 55
DPCM : A6 AA 59 55 55 56 55 55 95 AA AA AA AA AA AA AA AA AA AA AA AA AC AA B4 54 AB CA 54 35 B5 AA AA
DPCM : AA AA AA AA AA AA 55 55 4D 55 55 55 55 9A AA AA AA AA AA AA AA AA AA AA AA AA AA AA AA AA AA AA
DPCM : AA AA AA AA 2A CB AA AA 2C AB AA AA AA AA AA 6A 65 B5 AA 54 A5 99 AA 95 A9 56 53 55 55 CD AA AA
DPCM : AA 2C 55 2D 95 69 56 55 A5 AA AA AA AA 54 53 95 A9 AA 5A 56 55 B5 2C AD AC B2 AA 54 95 AA 56 9A
DPCM : 55 AD AA AA AA AA 6A 55 55 55 55 55 95 69 66 59 65 95 55 55 55 55 55 55 55 55 55 55 55 65 55 55
DPCM : 56 AA AA AA AA AA AA AA AA AA AA AA AA AA AA AA 4A 55 AD AA AA AA AA AA AA AA AA AA AA AA D4 54
DPCM : 55 D5 AA D2 AA AA AA 6A 55 55 A6 A9 AA AA AA AA AA AA AA AA AA AA 6A 66 59 55 55 55 55 55 99 AA
DPCM : AA AA AA AA AA AA AA AA AA 56 AA 9A 5A 5A AA AA AA AA AA AA AA AA CA AA AA AA AA AA AA AA AA AA
DPCM : AA AA AA AA AA AA AA AA AA AA AA AA AA AA AA AA 52 55 55 55 55 AD AA AA AA AA AA AA 9A 66 96 9A
DPCM : A6 5A 55 55 55 55 55 55 55 55 D5 AC D4 B4 54 55 65 AA A9 AA AA AA AA AA AA AA AA AA AA AA AA AA
DPCM : AA AA AA AA AA AA AA AA AA AA AA AA AA AA AA AA AA AA AA AA AA AA AA AA AA AA AA AA AA AA AA AA
DPCM : AA AA AA AA AA AA AA AA AA AA 6A 55 55 55 59 55 65 AA AA AA AA AA AA AA 9A 69 55 55 65 A9 A6 AA
DPCM : AA AA AA AA AA AA AA AA AA AA AA AA AA AA AA AA AA AA AA AA AA AA AA AA AA AA AA AA AA AA AA AA
DPCM : AA AA AA AA AA AA AA AA AA AA AA AA AA AA AA AA AA AA AA AA AA AA AA AA AA AA AA AA AA AA AA AA
DPCM : AA AA AA AA AA AA AA AA AA AA AA AA AA 5A 59 55 A9 55 55 A9 AA AA AA AA AA AA AA AA AA AA AA AA
DPCM : AA AA AA AA AA AA AA AA AA AA AA AA AA AA AA AA AA AA AA AA AA AA AA AA AA AA AA AA AA AA AA AA
DPCM : AA AA AA AA AA AA AA AA AA AA AA AA AA AA AA AA AA AA AA AA AA AA AA AA AA AA AA AA AA AA AA AA
DPCM : AA AA AA AA AA AA AA AA AA AA AA AA AA AA AA AA AA AA AA AA AA AA AA AA AA AA AA AA AA AA AA AA
DPCM : AA AA AA AA AA AA AA AA AA AA AA AA AA AA AA AA AA AA AA AA AA AA AA AA AA AA AA AA AA AA AA AA
DPCM : AA AA AA AA AA AA AA AA AA AA AA AA AA AA AA AA AA AA AA AA AA AA AA AA AA AA AA AA AA AA AA AA
DPCM : AA AA AA AA AA AA AA AA AA AA AA AA AA AA AA AA AA AA AA AA AA AA AA AA AA AA AA AA AA AA AA AA
DPCM : AA AA AA AA AA AA AA AA AA AA AA AA AA AA AA AA AA AA AA AA AA AA AA AA AA AA AA AA AA AA AA AA
DPCM : AA AA AA AA AA AA AA AA AA AA AA AA AA AA AA AA AA AA AA AA AA AA AA AA AA AA AA AA AA AA AA AA
DPCM : AA AA AA AA AA AA AA AA AA AA AA AA AA AA AA AA AA AA AA AA AA AA AA AA AA AA AA AA AA AA AA AA
DPCM : AA AA AA AA AA AA AA AA AA AA AA AA AA AA AA AA AA AA AA AA AA AA AA AA AA AA AA AA AA AA AA AA
DPCM : AA AA AA AA AA 55 55 55 55 55 55 55 55 55 55 55 55
DPCMDEF   1  1185 "snare-dry2"
DPCM : 00 00 E0 FF FF FF 07 00 00 00 00 80 FF FF FF FF FF 81 FF C7 FF BF 01 00 00 F0 00 00 0F 00 00 F0
DPCM : CF FF FF FF FF FF 7F 70 E4 F3 21 FC 01 00 00 00 00 30 18 58 EC FF 97 F7 FF FF FF 3F 1F 43 00 00
DPCM : 00 E0 97 23 04 00 00 C0 1F FE FF FF 9D 1F F3 CE F7 FF 00 1E 00 A1 17 18 12 F3 12 0E 3B 0C 12 79
DPCM : 3E 7F A6 1F 3F E2 0F F9 DC F3 09 63 18 32 80 7C 86 B7 4C E8 27 42 3E E2 CF 30 60 EC 9F D7 70 C2
DPCM : 3F 6C BE F8 6F 12 80 0F 06 80 41 E7 F3 CE 4C F9 78 2E C0 9A 17 46 CE 9F 0F 3A C3 9D 77 7F 38 00
DPCM : 20 40 9E 1E BE FD 40 07 9E F1 DC 41 B3 C7 CF F1 7D 80 18 BE 9B 60 33 90 14 2C DF F8 80 0F 37 3D
DPCM : 5D 2E 7D C8 CC F0 0D EF 24 00 BE F8 B8 C7 99 38 88 79 11 7F 67 F2 C7 89 A6 A9 09 D8 A3 0D 3A BA
DPCM : 8A 88 7B F9 88 E5 69 33 1F 4C A6 32 E3 88 F7 76 CC 90 49 60 39 DF 84 C7 E3 0E FC F2 24 4B 16 79
DPCM : 78 B8 7A 83 1C 4B 8A 57 64 DE C1 E7 E4 C3 49 F9 C8 85 E6 18 5D 58 3E F1 11 2B A2 F3 28 AF 92 E6
DPCM : E6 68 FF A8 03 16 36 3D 78 0E B1 38 F0 49 32 CF 58 19 5E 67 E9 43 71 EB 64 8C 67 3F C4 31 AE 34
DPCM : 84 73 E0 CE 73 E2 98 CB B1 C2 73 DE 9C 32 9A 86 8A E3 2C 1C CF E2 A3 8E 2D CD F4 88 D9 C4 6C 5B
DPCM : 1C 33 D8 64 1C B1 A9 73 AE BE C3 9C 48 8B 63 AA 9C 82 AF 66 9A 6C 78 E4 B1 C2 63 B6 91 AA C9 93
DPCM : 77 86 B2 9A 12 E9 AB 1C 9D F9 4A 61 52 69 A6 38 8E AF AC 1D 96 4A AB DA 9C 23 E9 4C 3B 0C CA 4E
DPCM : 13 D7 AA AA 3C 9C 38 77 D0 DA 68 9A 1C 93 59 BA 6A 66 9A 66 6E 18 F3 E2 32 6A AC CA 58 5C AB 3C
DPCM : 4A DB B2 46 96 4B AA 65 DA 26 A1 3A 35 A9 5A 13 0F 8F 3C B3 9C 33 5B 8E 33 13 E6 89 32 1B 33 8B
DPCM : 82 97 56 F5 55 4E 95 55 9A AA DA 98 73 4C A1 53 CB 18 37 AD 2A BA E4 AC B4 AA 28 CF AA AA EA A8
DPCM : 95 AA A9 CA 55 17 4E 56 CB 4C 2A 35 B2 CC 78 55 DB 64 6A 95 96 7A AC 35 D4 58 AA 0C 6B 5A 53 63
DPCM : B3 98 8E B5 52 EB 32 95 CB 85 55 A5 AA 2A AD E2 CA 5A 6C 2A D3 AA 2A AD AA 5A AA D2 54 E3 6C AA
DPCM : AA 54 AE B6 92 6A 53 59 69 2A 4B 65 95 72 B6 B4 B8 6A A7 CC 34 73 96 AA A4 A4 36 3C E6 2A AB AC
DPCM : A3 AA A9 56 A9 AA A9 96 A5 AA 4A B5 CA 92 D9 AC B2 AA 99 AA 56 99 59 96 AA AA AA 2A 93 D5 AC AA
DPCM : AA A9 5A 56 AA AA 56 A9 92 59 39 55 35 55 2B AD AA 9A A6 56 65 A5 AA AA AA D4 34 55 59 D5 5A 5A
DPCM : 55 8D 96 A6 A9 AA 35 A9 4A AD 2A 2B 59 B5 B4 96 AB 29 A5 59 AA 55 93 AA 2A D1 AA 72 B5 4A 2B D5
DPCM : AA 56 4B AD 94 AA B5 4A 55 95 2A 69 AC 6C 4D 4B 55 AB AA AA AA AA 2C AD AA AA A6 6A 55 9A AA AA
DPCM : AA D2 AA AA AA AA 4A 55 AB AA AA 56 AA AA AA AA 6A A7 29 D5 52 AA AA 4A A5 55 B5 AA AA AA AA 5A
DPCM : 95 AA AA AA AA AA AA AA AA AA AA 2A AB AA AA AA AA AA A9 AA AA CA AA 2A AB AA AA AA AA AA AA AA
DPCM : AA B2 AA AA AA AA B2 B2 AA CA AA AA AA AA AA AA 9A 56 A9 69 A5 A6 AA AA AA 2A 55 55 2D B5 AA AA
DPCM : AA 56 55 65 96 55 A9 AA AA AA AA CA AA AA AA AA B4 AA AC AA AA CC AA AA AA AA AA 55 4D 9A 95 AA
DPCM : AA AA AA AA CA 52 55 53 55 4D AB AA AA AA AA AA 6A 59 A6 A9 AA AA AA AA AA 4A AB AA AA AA AA AA
DPCM : AA AA AA AA AA AA AA AA AA AA AA AA AA AA AA AA AA AA AA D4 AA AA AA AA 2A AB AA AA AA AA 95 65
DPCM : 55 A9 AA AA AA AA AA AA AA AA AA AA AA AA AA AA AA A9 5A AA AA AA AA AA AA AA AA AA AA AA AA AA
DPCM : AA AA AA AA AA AA AA AA AA AA AA AA AA AA AA AA AA AA AA AA AA AA AA AA AA AA AA AA AA AA AA AA
DPCM : AA AA AA AA AA AA AA AA AA AA AA AA AA AA AA AA AA AA AA AA AA AA AA AA AA AA AA AA AA AA AA AA
DPCM : AA AA AA AA AA AA AA AA AA AA AA AA AA AA AA AA AA AA AA AA AA AA AA AA AA AA AA AA AA AA AA AA
DPCM : AA AA AA AA AA AA AA AA AA AA AA AA AA AA AA AA AA AA AA AA AA AA AA AA AA AA AA AA AA AA AA AA
DPCM : AA AA AA AA AA AA AA AA AA AA AA AA AA AA AA AA AA AA AA AA AA AA AA AA AA AA AA AA AA AA AA AA
DPCM : AA AA AA AA AA AA AA AA AA AA AA AA AA AA AA AA AA AA AA AA AA AA AA AA AA AA AA AA AA AA AA AA
DPCM : AA AA AA AA AA AA AA AA AA AA AA AA AA AA AA AA AA AA AA AA AA AA AA AA AA AA 55 55 55 55 55 55
DPCM : 55

# Instruments
INST2A03   0     0  -1   0  -1   0 "Arp (1 3)"
INST2A03   1     1  -1  -1  -1   1 "Bass (1 3 4)"
INST2A03   2     2  -1   2  -1  -1 "Kit (1)"
INST2A03   3     3   1  -1  -1   3 "Piano (2)"
INST2A03   4     4  -1  -1  -1   3 "Noise (1)"
INST2A03   5     6  -1  -1  -1  -1 "Organish (1)"
KEYDPCM   5   3   0     0  13   0     0  -1
INST2A03   6     7  -1  -1  -1   5 "Bass short (3)"
INST2A03   7     5  -1  -1  -1  -1 "Drumkit (3)"
KEYDPCM   7   3   1     1  15   0     0  -1

# Tracks

TRACK  48   4 120 "Title Screen"
COLUMNS : 1 1 1 1 1

ORDER 00 : 02 0A 00 00 00
ORDER 01 : 01 00 00 00 00
ORDER 02 : 01 05 00 00 00
ORDER 03 : 01 06 00 02 00
ORDER 04 : 03 00 00 00 00
ORDER 05 : 01 01 05 01 01
ORDER 06 : 01 02 06 01 01
ORDER 07 : 01 03 07 01 01
ORDER 08 : 04 04 08 01 02

PATTERN 00
ROW 00 : ... .. . ... : ... .. 0 A00 : ... .. 0 A00 : ... .. 0 A00 : ... .. . A00
ROW 01 : ... .. . ... : ... .. . ... : ... .. . ... : ... .. . ... : ... .. . ...
ROW 02 : ... .. . ... : ... .. . ... : ... .. . ... : ... .. . ... : ... .. . ...
ROW 03 : ... .. . ... : ... .. . ... : ... .. . ... : ... .. . ... : ... .. . ...
ROW 04 : ... .. . ... : ... .. . ... : ... .. . ... : ... .. . ... : ... .. . ...
ROW 05 : ... .. . ... : ... .. . ... : ... .. . ... : ... .. . ... : ... .. . ...
ROW 06 : ... .. . ... : ... .. . ... : ... .. . ... : ... .. . ... : ... .. . ...
ROW 07 : ... .. . ... : ... .. . ... : ... .. . ... : ... .. . ... : ... .. . ...
ROW 08 : ... .. . ... : ... .. . ... : ... .. . ... : ... .. . ... : ... .. . ...
ROW 09 : ... .. . ... : ... .. . ... : ... .. . ... : ... .. . ... : ... .. . ...
ROW 0A : ... .. . ... : ... .. . ... : ... .. . ... : ... .. . ... : ... .. . ...
ROW 0B : ... .. . ... : ... .. . ... : ... .. . ... : ... .. . ... : ... .. . ...
ROW 0C : ... .. . ... : ... .. . ... : ... .. . ... : ... .. . ... : ... .. . ...
ROW 0D : ... .. . ... : ... .. . ... : ... .. . ... : ... .. . ... : ... .. . ...
ROW 0E : ... .. . ... : ... .. . ... : ... .. . ... : ... .. . ... : ... .. . ...
ROW 0F : ... .. . ... : ... .. . ... : ... .. . ... : ... .. . ... : ... .. . ...
ROW 10 : ... .. . ... : ... .. . ... : ... .. . ... : ... .. . ... : ... .. . ...
ROW 11 : ... .. . ... : ... .. . ... : ... .. . ... : ... .. . ... : ... .. . ...
ROW 12 : ... .. . ... : ... .. . ... : ... .. . ... : ... .. . ... : ... .. . ...
ROW 13 : ... .. . ... : ... .. . ... : ... .. . ... : ... .. . ... : ... .. . ...
ROW 14 : ... .. . ... : ... .. . ... : ... .. . ... : ... .. . ... : ... .. . ...
ROW 15 : ... .. . ... : ... .. . ... : ... .. . ... : ... .. . ... : ... .. . ...
ROW 16 : ... .. . ... : ... .. . ... : ... .. . ... : ... .. . ... : ... .. . ...
ROW 17 : ... .. . ... : ... .. . ... : ... .. . ... : ... .. . ... : ... .. . ...
ROW 18 : ... .. . ... : ... .. . ... : ... .. . ... : ... .. . ... : ... .. . ...
ROW 19 : ... .. . ... : ... .. . ... : ... .. . ... : ... .. . ... : ... .. . ...
ROW 1A : ... .. . ... : ... .. . ... : ... .. . ... : ... .. . ... : ... .. . ...
ROW 1B : ... .. . ... : ... .. . ... : ... .. . ... : ... .. . ... : ... .. . ...
ROW 1C : ... .. . ... : ... .. . ... : ... .. . ... : ... .. . ... : ... .. . ...
ROW 1D : ... .. . ... : ... .. . ... : ... .. . ... : ... .. . ... : ... .. . ...
ROW 1E : ... .. . ... : ... .. . ... : ... .. . ... : ... .. . ... : ... .. . ...
ROW 1F : ... .. . ... : ... .. . ... : ... .. . ... : ... .. . ... : ... .. . ...
ROW 20 : ... .. . ... : ... .. . ... : ... .. . ... : ... .. . ... : ... .. . ...
ROW 21 : ... .. . ... : ... .. . ... : ... .. . ... : ... .. . ... : ... .. . ...
ROW 22 : ... .. . ... : ... .. . ... : ... .. . ... : ... .. . ... : ... .. . ...
ROW 23 : ... .. . ... : ... .. . ... : ... .. . ... : ... .. . ... : ... .. . ...
ROW 24 : ... .. . ... : ... .. . ... : ... .. . ... : ... .. . ... : ... .. . ...
ROW 25 : ... .. . ... : ... .. . ... : ... .. . ... : ... .. . ... : ... .. . ...
ROW 26 : ... .. . ... : ... .. . ... : ... .. . ... : ... .. . ... : ... .. . ...
ROW 27 : ... .. . ... : ... .. . ... : ... .. . ... : ... .. . ... : ... .. . ...
ROW 28 : ... .. . ... : ... .. . ... : ... .. . ... : ... .. . ... : ... .. . ...
ROW 29 : ... .. . ... : ... .. . ... : ... .. . ... : ... .. . ... : ... .. . ...
ROW 2A : ... .. . ... : ... .. . ... : ... .. . ... : ... .. . ... : ... .. . ...
ROW 2B : ... .. . ... : ... .. . ... : ... .. . ... : ... .. . ... : ... .. . ...
ROW 2C : ... .. . ... : ... .. . ... : ... .. . ... : ... .. . ... : ... .. . ...
ROW 2D : ... .. . ... : ... .. . ... : ... .. . ... : ... .. . ... : ... .. . ...
ROW 2E : ... .. . ... : ... .. . ... : ... .. . ... : ... .. . ... : ... .. . ...
ROW 2F : ... .. . ... : ... .. . ... : ... .. . ... : ... .. . ... : ... .. . ...

PATTERN 01
ROW 00 : C-2 00 F ... : C-1 01 D ... : ... .. . ... : F-# 02 F ... : C-3 05 . ...
ROW 01 : C-2 00 7 ... : C-1 01 . ... : ... .. . ... : ... .. . ... : ... .. . ...
ROW 02 : D#2 00 F ... : C-1 01 . ... : ... .. . ... : ... .. . ... : ... .. . ...
ROW 03 : D#2 00 7 ... : C-1 01 . ... : ... .. . ... : ... .. . ... : ... .. . ...
ROW 04 : G-2 00 F ... : C-1 01 . ... : ... .. . ... : ... .. . ... : ... .. . ...
ROW 05 : G-2 00 7 ... : ... .. . ... : ... .. . ... : ... .. . ... : ... .. . ...
ROW 06 : G#2 00 F ... : C-1 01 . ... : ... .. . ... : ... .. . ... : ... .. . ...
ROW 07 : G#2 00 7 ... : ... .. . ... : ... .. . ... : ... .. . ... : ... .. . ...
ROW 08 : G-2 00 F ... : C-1 01 . ... : ... .. . ... : ... .. . ... : ... .. . ...
ROW 09 : G-2 00 7 ... : C-1 01 . ... : ... .. . ... : ... .. . ... : ... .. . ...
ROW 0A : D#2 00 F ... : C-1 01 . ... : ... .. . ... : ... .. . ... : ... .. . ...
ROW 0B : D#2 00 7 ... : ... .. . ... : ... .. . ... : ... .. . ... : ... .. . ...
ROW 0C : C-2 00 F ... : C-1 01 . ... : ... .. . ... : 7-# 02 B ... : ... .. . ...
ROW 0D : C-2 00 7 ... : ... .. . ... : ... .. . ... : ... .. . ... : ... .. . ...
ROW 0E : D#2 00 F ... : C-1 01 . ... : ... .. . ... : ... .. . ... : ... .. . ...
ROW 0F : D#2 00 7 ... : ... .. . ... : ... .. . ... : ... .. . ... : ... .. . ...
ROW 10 : G-2 00 F ... : C-1 01 . ... : ... .. . ... : ... .. . ... : ... .. . ...
ROW 11 : G-2 00 7 ... : C-1 01 . ... : ... .. . ... : ... .. . ... : ... .. . ...
ROW 12 : G#2 00 F ... : C-1 01 . ... : ... .. . ... : ... .. . ... : ... .. . ...
ROW 13 : G#2 00 7 ... : C-1 01 . ... : ... .. . ... : ... .. . ... : ... .. . ...
ROW 14 : G-2 00 F ... : C-1 01 . ... : ... .. . ... : ... .. . ... : ... .. . ...
ROW 15 : G-2 00 7 ... : ... .. . ... : ... .. . ... : ... .. . ... : ... .. . ...
ROW 16 : D#2 00 F ... : C-1 01 . ... : ... .. . ... : ... .. . ... : ... .. . ...
ROW 17 : D#2 00 7 ... : ... .. . ... : ... .. . ... : ... .. . ... : ... .. . ...
ROW 18 : C-2 00 F ... : C-1 01 . ... : ... .. . ... : F-# 02 F ... : C-3 05 . ...
ROW 19 : C-2 00 7 ... : C-1 01 . ... : ... .. . ... : ... .. . ... : ... .. . ...
ROW 1A : D#2 00 F ... : C-1 01 . ... : ... .. . ... : ... .. . ... : ... .. . ...
ROW 1B : D#2 00 7 ... : C-1 01 . ... : ... .. . ... : ... .. . ... : ... .. . ...
ROW 1C : G-2 00 F ... : C-1 01 . ... : ... .. . ... : ... .. . ... : ... .. . ...
ROW 1D : G-2 00 7 ... : ... .. . ... : ... .. . ... : ... .. . ... : ... .. . ...
ROW 1E : G#2 00 F ... : C-1 01 . ... : ... .. . ... : ... .. . ... : ... .. . ...
ROW 1F : G#2 00 7 ... : ... .. . ... : ... .. . ... : ... .. . ... : ... .. . ...
ROW 20 : G-2 00 F ... : C-1 01 . ... : ... .. . ... : ... .. . ... : ... .. . ...
ROW 21 : G-2 00 7 ... : ... .. . ... : ... .. . ... : ... .. . ... : ... .. . ...
ROW 22 : D#2 00 F ... : C-1 01 . ... : ... .. . ... : ... .. . ... : ... .. . ...
ROW 23 : D#2 00 7 ... : ... .. . ... : ... .. . ... : ... .. . ... : ... .. . ...
ROW 24 : C-2 00 F ... : C-1 01 . ... : ... .. . ... : 7-# 02 B ... : ... .. . ...
ROW 25 : C-2 00 7 ... : C-1 01 . ... : ... .. . ... : ... .. . ... : ... .. . ...
ROW 26 : D#2 00 F ... : C-1 01 . ... : ... .. . ... : ... .. . ... : ... .. . ...
ROW 27 : D#2 00 7 ... : C-1 01 . ... : ... .. . ... : ... .. . ... : ... .. . ...
ROW 28 : G-2 00 F ... : C-1 01 . ... : ... .. . ... : ... .. . ... : ... .. . ...
ROW 29 : G-2 00 7 ... : ... .. . ... : ... .. . ... : ... .. . ... : ... .. . ...
ROW 2A : G#2 00 F ... : C-1 01 . ... : ... .. . ... : ... .. . ... : ... .. . ...
ROW 2B : G#2 00 7 ... : ... .. . ... : ... .. . ... : ... .. . ... : ... .. . ...
ROW 2C : G-2 00 F ... : C-1 01 . ... : ... .. . ... : ... .. . ... : ... .. . ...
ROW 2D : G-2 00 7 ... : ... .. . ... : ... .. . ... : ... .. . ... : ... .. . ...
ROW 2E : D#2 00 F ... : C-1 01 . ... : ... .. . ... : ... .. . ... : ... .. . ...
ROW 2F : D#2 00 7 ... : ... .. . ... : ... .. . ... : ... .. . ... : ... .. . ...

PATTERN 02
ROW 00 : C-2 00 0 ... : G-1 01 D ... : ... .. . ... : ... .. . ... : C-3 05 . ...
ROW 01 : ... .. . ... : G-1 01 . ... : ... .. . ... : ... .. . ... : ... .. . ...
ROW 02 : D#2 00 0 ... : G-1 01 . ... : ... .. . ... : ... .. . ... : ... .. . ...
ROW 03 : ... .. . ... : G-1 01 . ... : ... .. . ... : ... .. . ... : ... .. . ...
ROW 04 : G-2 00 1 ... : G-1 01 . ... : ... .. . ... : ... .. . ... : ... .. . ...
ROW 05 : ... .. . ... : ... .. . ... : ... .. . ... : ... .. . ... : ... .. . ...
ROW 06 : G#2 00 1 ... : G-1 01 . ... : ... .. . ... : ... .. . ... : ... .. . ...
ROW 07 : ... .. . ... : ... .. . ... : ... .. . ... : ... .. . ... : ... .. . ...
ROW 08 : G-2 00 2 ... : G-1 01 . ... : ... .. . ... : ... .. . ... : ... .. . ...
ROW 09 : ... .. . ... : G-1 01 . ... : ... .. . ... : ... .. . ... : ... .. . ...
ROW 0A : D#2 00 3 ... : G-1 01 . ... : ... .. . ... : ... .. . ... : ... .. . ...
ROW 0B : ... .. . ... : ... .. . ... : ... .. . ... : ... .. . ... : ... .. . ...
ROW 0C : C-2 00 3 ... : G-1 01 . ... : ... .. . ... : ... .. . ... : ... .. . ...
ROW 0D : ... .. . ... : ... .. . ... : ... .. . ... : ... .. . ... : ... .. . ...
ROW 0E : D#2 00 4 ... : G-1 01 . ... : ... .. . ... : ... .. . ... : ... .. . ...
ROW 0F : ... .. . ... : ... .. . ... : ... .. . ... : ... .. . ... : ... .. . ...
ROW 10 : G-2 00 5 ... : G-1 01 . ... : ... .. . ... : ... .. . ... : ... .. . ...
ROW 11 : ... .. . ... : G-1 01 . ... : ... .. . ... : ... .. . ... : ... .. . ...
ROW 12 : G#2 00 5 ... : G-1 01 . ... : ... .. . ... : ... .. . ... : ... .. . ...
ROW 13 : ... .. . ... : G-1 01 . ... : ... .. . ... : ... .. . ... : ... .. . ...
ROW 14 : G-2 00 6 ... : G-1 01 . ... : ... .. . ... : ... .. . ... : ... .. . ...
ROW 15 : ... .. . ... : ... .. . ... : ... .. . ... : ... .. . ... : ... .. . ...
ROW 16 : D#2 00 7 ... : G-1 01 . ... : ... .. . ... : ... .. . ... : ... .. . ...
ROW 17 : ... .. . ... : ... .. . ... : ... .. . ... : ... .. . ... : ... .. . ...
ROW 18 : C-2 00 7 ... : G-1 01 . ... : ... .. . ... : 7-# 04 0 A10 : C-3 05 . ...
ROW 19 : ... .. . ... : G-1 01 . ... : ... .. . ... : ... .. . ... : ... .. . ...
ROW 1A : D#2 00 8 ... : G-1 01 . ... : ... .. . ... : ... .. . ... : ... .. . ...
ROW 1B : ... .. . ... : G-1 01 . ... : ... .. . ... : ... .. . ... : ... .. . ...
ROW 1C : G-2 00 9 ... : G-1 01 . ... : ... .. . ... : ... .. . ... : ... .. . ...
ROW 1D : ... .. . ... : ... .. . ... : ... .. . ... : ... .. . ... : ... .. . ...
ROW 1E : G#2 00 9 ... : G-1 01 . ... : ... .. . ... : ... .. . ... : ... .. . ...
ROW 1F : ... .. . ... : ... .. . ... : ... .. . ... : ... .. . ... : ... .. . ...
ROW 20 : G-2 00 A ... : G-1 01 . ... : ... .. . ... : ... .. . ... : ... .. . ...
ROW 21 : ... .. . ... : ... .. . ... : ... .. . ... : ... .. . ... : ... .. . ...
ROW 22 : D#2 00 B ... : G-1 01 . ... : ... .. . ... : ... .. . ... : ... .. . ...
ROW 23 : ... .. . ... : ... .. . ... : ... .. . ... : ... .. . ... : ... .. . ...
ROW 24 : C-2 00 B ... : G-1 01 . ... : ... .. . ... : ... .. . ... : C-3 05 . ...
ROW 25 : ... .. . ... : G-1 01 . ... : ... .. . ... : ... .. . ... : ... .. . ...
ROW 26 : D#2 00 C ... : G-1 01 . ... : ... .. . ... : ... .. . ... : ... .. . ...
ROW 27 : ... .. . ... : G-1 01 . ... : ... .. . ... : ... .. . ... : ... .. . ...
ROW 28 : G-2 00 D ... : G-1 01 . ... : ... .. . ... : ... .. . ... : C-3 05 . ...
ROW 29 : ... .. . ... : ... .. . ... : ... .. . ... : ... .. . ... : ... .. . ...
ROW 2A : G#2 00 D ... : G-1 01 . ... : ... .. . ... : ... .. . ... : ... .. . ...
ROW 2B : ... .. . ... : ... .. . ... : ... .. . ... : ... .. . ... : ... .. . ...
ROW 2C : G-2 00 E ... : G-1 01 . ... : ... .. . ... : ... .. . ... : C-3 05 . ...
ROW 2D : ... .. . ... : ... .. . ... : ... .. . ... : ... .. . ... : ... .. . ...
ROW 2E : D#2 00 F ... : G-1 01 . ... : ... .. . ... : ... .. . ... : C-3 05 . ...
ROW 2F : ... .. . ... : ... .. . ... : ... .. . ... : ... .. . ... : ... .. . ...

PATTERN 03
ROW 00 : ... .. 0 A00 : G#1 01 D ... : ... .. . ... : ... .. . ... : ... .. . ...
ROW 01 : ... .. . ... : G#1 01 . ... : ... .. . ... : ... .. . ... : ... .. . ...
ROW 02 : ... .. . ... : G#1 01 . ... : ... .. . ... : ... .. . ... : ... .. . ...
ROW 03 : ... .. . ... : G#1 01 . ... : ... .. . ... : ... .. . ... : ... .. . ...
ROW 04 : ... .. . ... : G#1 01 . ... : ... .. . ... : ... .. . ... : ... .. . ...
ROW 05 : ... .. . ... : ... .. . ... : ... .. . ... : ... .. . ... : ... .. . ...
ROW 06 : ... .. . ... : G#1 01 . ... : ... .. . ... : ... .. . ... : ... .. . ...
ROW 07 : ... .. . ... : ... .. . ... : ... .. . ... : ... .. . ... : ... .. . ...
ROW 08 : ... .. . ... : G#1 01 . ... : ... .. . ... : ... .. . ... : ... .. . ...
ROW 09 : ... .. . ... : G#1 01 . ... : ... .. . ... : ... .. . ... : ... .. . ...
ROW 0A : ... .. . ... : G#1 01 . ... : ... .. . ... : ... .. . ... : ... .. . ...
ROW 0B : ... .. . B05 : ... .. . ... : ... .. . ... : ... .. . ... : ... .. . ...
ROW 0C : ... .. . ... : G#1 01 . ... : ... .. . ... : ... .. . ... : ... .. . ...
ROW 0D : ... .. . ... : ... .. . ... : ... .. . ... : ... .. . ... : ... .. . ...
ROW 0E : ... .. . ... : G#1 01 . ... : ... .. . ... : ... .. . ... : ... .. . ...
ROW 0F : ... .. . ... : ... .. . ... : ... .. . ... : ... .. . ... : ... .. . ...
ROW 10 : ... .. . ... : G#1 01 . ... : ... .. . ... : ... .. . ... : ... .. . ...
ROW 11 : ... .. . ... : G#1 01 . ... : ... .. . ... : ... .. . ... : ... .. . ...
ROW 12 : ... .. . ... : G#1 01 . ... : ... .. . ... : ... .. . ... : ... .. . ...
ROW 13 : ... .. . ... : G#1 01 . ... : ... .. . ... : ... .. . ... : ... .. . ...
ROW 14 : ... .. . ... : G#1 01 . ... : ... .. . ... : ... .. . ... : ... .. . ...
ROW 15 : ... .. . ... : ... .. . ... : ... .. . ... : ... .. . ... : ... .. . ...
ROW 16 : ... .. . ... : G#1 01 . ... : ... .. . ... : ... .. . ... : ... .. . ...
ROW 17 : ... .. . ... : ... .. . ... : ... .. . ... : ... .. . ... : ... .. . ...
ROW 18 : ... .. . ... : G#1 01 . ... : ... .. . ... : ... .. . ... : ... .. . ...
ROW 19 : ... .. . ... : G#1 01 . ... : ... .. . ... : ... .. . ... : ... .. . ...
ROW 1A : ... .. . ... : G#1 01 . ... : ... .. . ... : ... .. . ... : ... .. . ...
ROW 1B : ... .. . ... : G#1 01 . ... : ... .. . ... : ... .. . ... : ... .. . ...
ROW 1C : ... .. . ... : G#1 01 . ... : ... .. . ... : ... .. . ... : ... .. . ...
ROW 1D : ... .. . ... : ... .. . ... : ... .. . ... : ... .. . ... : ... .. . ...
ROW 1E : ... .. . ... : G#1 01 . ... : ... .. . ... : ... .. . ... : ... .. . ...
ROW 1F : ... .. . ... : ... .. . ... : ... .. . ... : ... .. . ... : ... .. . ...
ROW 20 : ... .. . ... : G#1 01 . ... : ... .. . ... : ... .. . ... : ... .. . ...
ROW 21 : ... .. . ... : ... .. . ... : ... .. . ... : ... .. . ... : ... .. . ...
ROW 22 : ... .. . ... : G#1 01 . ... : ... .. . ... : ... .. . ... : ... .. . ...
ROW 23 : ... .. . ... : ... .. . ... : ... .. . ... : ... .. . ... : ... .. . ...
ROW 24 : ... .. . ... : G#1 01 . ... : ... .. . ... : ... .. . ... : ... .. . ...
ROW 25 : ... .. . ... : G#1 01 . ... : ... .. . ... : ... .. . ... : ... .. . ...
ROW 26 : ... .. . ... : G#1 01 . ... : ... .. . ... : ... .. . ... : ... .. . ...
ROW 27 : ... .. . ... : G#1 01 . ... : ... .. . ... : ... .. . ... : ... .. . ...
ROW 28 : ... .. . ... : G#1 01 . ... : ... .. . ... : ... .. . ... : ... .. . ...
ROW 29 : ... .. . ... : ... .. . ... : ... .. . ... : ... .. . ... : ... .. . ...
ROW 2A : ... .. . ... : G#1 01 . ... : ... .. . ... : ... .. . ... : ... .. . ...
ROW 2B : ... .. . ... : ... .. . ... : ... .. . ... : ... .. . ... : ... .. . ...
ROW 2C : ... .. . ... : G#1 01 . ... : ... .. . ... : ... .. . ... : ... .. . ...
ROW 2D : ... .. . ... : ... .. . ... : ... .. . ... : ... .. . ... : ... .. . ...
ROW 2E : ... .. . ... : G#1 01 . ... : ... .. . ... : ... .. . ... : ... .. . ...
ROW 2F : ... .. . ... : ... .. . ... : ... .. . ... : ... .. . ... : ... .. . ...

PATTERN 04
ROW 00 : C-2 00 F ... : D#1 01 D ... : ... .. . ... : ... .. . ... : ... .. . ...
ROW 01 : C-2 00 7 ... : D#1 01 . ... : ... .. . ... : ... .. . ... : ... .. . ...
ROW 02 : D#2 00 F ... : D#1 01 . ... : ... .. . ... : ... .. . ... : ... .. . ...
ROW 03 : D#2 00 7 ... : D#1 01 . ... : ... .. . ... : ... .. . ... : ... .. . ...
ROW 04 : G-2 00 F ... : D#1 01 . ... : ... .. . ... : ... .. . ... : ... .. . ...
ROW 05 : G-2 00 7 ... : ... .. . ... : ... .. . ... : ... .. . ... : ... .. . ...
ROW 06 : G#2 00 F ... : D#1 01 . ... : ... .. . ... : ... .. . ... : ... .. . ...
ROW 07 : G#2 00 7 ... : ... .. . ... : ... .. . ... : ... .. . ... : ... .. . ...
ROW 08 : G-2 00 F ... : D#1 01 . ... : ... .. . ... : ... .. . ... : ... .. . ...
ROW 09 : G-2 00 7 ... : D#1 01 . ... : ... .. . ... : ... .. . ... : ... .. . ...
ROW 0A : D#2 00 F ... : D#1 01 . ... : ... .. . ... : ... .. . ... : ... .. . ...
ROW 0B : D#2 00 7 ... : ... .. . ... : ... .. . ... : ... .. . ... : ... .. . ...
ROW 0C : C-2 00 F ... : D#1 01 . ... : ... .. . ... : ... .. . ... : ... .. . ...
ROW 0D : C-2 00 7 ... : ... .. . ... : ... .. . ... : ... .. . ... : ... .. . ...
ROW 0E : D#2 00 F ... : D#1 01 . ... : ... .. . ... : ... .. . ... : ... .. . ...
ROW 0F : D#2 00 7 ... : ... .. . ... : ... .. . ... : ... .. . ... : ... .. . ...
ROW 10 : G-2 00 F ... : D#1 01 . ... : ... .. . ... : ... .. . ... : ... .. . ...
ROW 11 : G-2 00 7 ... : D#1 01 . ... : ... .. . ... : ... .. . ... : ... .. . ...
ROW 12 : G#2 00 F ... : D#1 01 . ... : ... .. . ... : ... .. . ... : ... .. . ...
ROW 13 : G#2 00 7 ... : D#1 01 . ... : ... .. . ... : ... .. . ... : ... .. . ...
ROW 14 : G-2 00 F ... : D#1 01 . ... : ... .. . ... : ... .. . ... : ... .. . ...
ROW 15 : G-2 00 7 ... : ... .. . ... : ... .. . ... : ... .. . ... : ... .. . ...
ROW 16 : D#2 00 F ... : D#1 01 . ... : ... .. . ... : ... .. . ... : ... .. . ...
ROW 17 : D#2 00 7 ... : ... .. . ... : ... .. . ... : ... .. . ... : ... .. . ...
ROW 18 : C-2 00 F ... : D#1 01 . ... : ... .. . ... : ... .. . ... : ... .. . ...
ROW 19 : C-2 00 7 ... : D#1 01 . ... : ... .. . ... : ... .. . ... : ... .. . ...
ROW 1A : D#2 00 F ... : D#1 01 . ... : ... .. . ... : ... .. . ... : ... .. . ...
ROW 1B : D#2 00 7 ... : D#1 01 . ... : ... .. . ... : ... .. . ... : ... .. . ...
ROW 1C : G-2 00 F ... : D#1 01 . ... : ... .. . ... : ... .. . ... : ... .. . ...
ROW 1D : G-2 00 7 ... : ... .. . ... : ... .. . ... : ... .. . ... : ... .. . ...
ROW 1E : G#2 00 F ... : D#1 01 . ... : ... .. . ... : ... .. . ... : ... .. . ...
ROW 1F : G#2 00 7 ... : ... .. . ... : ... .. . ... : ... .. . ... : ... .. . ...
ROW 20 : G-2 00 F ... : D#1 01 . ... : ... .. . ... : ... .. . ... : ... .. . ...
ROW 21 : G-2 00 7 ... : ... .. . ... : ... .. . ... : ... .. . ... : ... .. . ...
ROW 22 : D#2 00 F ... : D#1 01 . ... : ... .. . ... : ... .. . ... : ... .. . ...
ROW 23 : D#2 00 7 ... : ... .. . ... : ... .. . ... : ... .. . ... : ... .. . ...
ROW 24 : C-2 00 F ... : F-1 01 . ... : ... .. . ... : ... .. . ... : ... .. . ...
ROW 25 : C-2 00 7 ... : F-1 01 . ... : ... .. . ... : ... .. . ... : ... .. . ...
ROW 26 : D#2 00 F ... : F-1 01 . ... : ... .. . ... : ... .. . ... : ... .. . ...
ROW 27 : D#2 00 7 ... : F-1 01 . ... : ... .. . ... : ... .. . ... : ... .. . ...
ROW 28 : G-2 00 F ... : F-1 01 . ... : ... .. . ... : ... .. . ... : ... .. . ...
ROW 29 : G-2 00 7 ... : ... .. . ... : ... .. . ... : ... .. . ... : ... .. . ...
ROW 2A : G#2 00 F ... : F-1 01 . ... : ... .. . ... : ... .. . ... : ... .. . ...
ROW 2B : G#2 00 7 ... : ... .. . ... : ... .. . ... : ... .. . ... : ... .. . ...
ROW 2C : G-2 00 F ... : F-1 01 . ... : ... .. . ... : ... .. . ... : ... .. . ...
ROW 2D : G-2 00 7 ... : ... .. . ... : ... .. . ... : ... .. . ... : ... .. . ...
ROW 2E : D#2 00 F ... : F-1 01 . ... : ... .. . ... : ... .. . ... : ... .. . ...
ROW 2F : D#2 00 7 B05 : ... .. . ... : ... .. . ... : ... .. . ... : ... .. . ...

PATTERN 05
ROW 00 : ... .. . ... : C-1 01 F ... : G#3 05 F 300 : ... .. . ... : ... .. . ...
ROW 01 : ... .. . ... : ... .. . ... : ... .. . ... : ... .. . ... : ... .. . ...
ROW 02 : ... .. . ... : ... .. . ... : ... .. . ... : ... .. . ... : ... .. . ...
ROW 03 : ... .. . ... : ... .. . ... : ... .. . ... : ... .. . ... : ... .. . ...
ROW 04 : ... .. . ... : C-1 01 7 ... : ... .. . ... : ... .. . ... : ... .. . ...
ROW 05 : ... .. . ... : ... .. . ... : ... .. . ... : ... .. . ... : ... .. . ...
ROW 06 : ... .. . ... : ... .. . ... : ... .. . ... : ... .. . ... : ... .. . ...
ROW 07 : ... .. . ... : ... .. . ... : ... .. . ... : ... .. . ... : ... .. . ...
ROW 08 : ... .. . ... : C-1 01 5 ... : ... .. . ... : ... .. . ... : ... .. . ...
ROW 09 : ... .. . ... : ... .. . ... : ... .. . ... : ... .. . ... : ... .. . ...
ROW 0A : ... .. . ... : ... .. . ... : ... .. . ... : ... .. . ... : ... .. . ...
ROW 0B : ... .. . ... : ... .. . ... : ... .. . ... : ... .. . ... : ... .. . ...
ROW 0C : ... .. . ... : C-1 01 4 ... : ... .. . ... : ... .. . ... : ... .. . ...
ROW 0D : ... .. . ... : ... .. . ... : ... .. . ... : ... .. . ... : ... .. . ...
ROW 0E : ... .. . ... : ... .. . ... : ... .. . ... : ... .. . ... : ... .. . ...
ROW 0F : ... .. . ... : ... .. . ... : ... .. . ... : ... .. . ... : ... .. . ...
ROW 10 : ... .. . ... : C-1 01 2 ... : ... .. . ... : ... .. . ... : ... .. . ...
ROW 11 : ... .. . ... : ... .. . ... : ... .. . ... : ... .. . ... : ... .. . ...
ROW 12 : ... .. . ... : ... .. . ... : ... .. . ... : ... .. . ... : ... .. . ...
ROW 13 : ... .. . ... : ... .. . ... : ... .. . ... : ... .. . ... : ... .. . ...
ROW 14 : ... .. . ... : C-1 01 1 ... : ... .. . ... : ... .. . ... : ... .. . ...
ROW 15 : ... .. . ... : ... .. . ... : ... .. . ... : ... .. . ... : ... .. . ...
ROW 16 : ... .. . ... : ... .. . ... : ... .. . ... : ... .. . ... : ... .. . ...
ROW 17 : ... .. . ... : ... .. . ... : ... .. . ... : ... .. . ... : ... .. . ...
ROW 18 : ... .. . ... : ... .. . ... : G-3 05 . 30A : ... .. . ... : ... .. . ...
ROW 19 : ... .. . ... : ... .. . ... : ... .. . ... : ... .. . ... : ... .. . ...
ROW 1A : ... .. . ... : ... .. . ... : ... .. . ... : ... .. . ... : ... .. . ...
ROW 1B : ... .. . ... : ... .. . ... : ... .. . ... : ... .. . ... : ... .. . ...
ROW 1C : ... .. . ... : ... .. . ... : ... .. . ... : ... .. . ... : ... .. . ...
ROW 1D : ... .. . ... : ... .. . ... : ... .. . ... : ... .. . ... : ... .. . ...
ROW 1E : ... .. . ... : ... .. . ... : ... .. . ... : ... .. . ... : ... .. . ...
ROW 1F : ... .. . ... : ... .. . ... : ... .. . ... : ... .. . ... : ... .. . ...
ROW 20 : ... .. . ... : ... .. . ... : ... .. . ... : ... .. . ... : ... .. . ...
ROW 21 : ... .. . ... : ... .. . ... : ... .. . ... : ... .. . ... : ... .. . ...
ROW 22 : ... .. . ... : ... .. . ... : ... .. . ... : ... .. . ... : ... .. . ...
ROW 23 : ... .. . ... : ... .. . ... : ... .. . ... : ... .. . ... : ... .. . ...
ROW 24 : ... .. . ... : ... .. . ... : ... .. . ... : ... .. . ... : ... .. . ...
ROW 25 : ... .. . ... : ... .. . ... : ... .. . ... : ... .. . ... : ... .. . ...
ROW 26 : ... .. . ... : ... .. . ... : ... .. . ... : ... .. . ... : ... .. . ...
ROW 27 : ... .. . ... : ... .. . ... : ... .. . ... : ... .. . ... : ... .. . ...
ROW 28 : ... .. . ... : ... .. . ... : ... .. . ... : ... .. . ... : ... .. . ...
ROW 29 : ... .. . ... : ... .. . ... : ... .. . ... : ... .. . ... : ... .. . ...
ROW 2A : ... .. . ... : ... .. . ... : ... .. . ... : ... .. . ... : ... .. . ...
ROW 2B : ... .. . ... : ... .. . ... : ... .. . ... : ... .. . ... : ... .. . ...
ROW 2C : ... .. . ... : ... .. . ... : ... .. . ... : ... .. . ... : ... .. . ...
ROW 2D : ... .. . ... : ... .. . ... : ... .. . ... : ... .. . ... : ... .. . ...
ROW 2E : ... .. . ... : ... .. . ... : ... .. . ... : ... .. . ... : ... .. . ...
ROW 2F : ... .. . ... : ... .. . ... : ... .. . ... : ... .. . ... : ... .. . ...

PATTERN 06
ROW 00 : ... .. . ... : C-1 01 F ... : C-4 05 . 30A : ... .. . ... : ... .. . ...
ROW 01 : ... .. . ... : ... .. . ... : ... .. . ... : ... .. . ... : ... .. . ...
ROW 02 : ... .. . ... : C-1 01 F ... : ... .. . ... : ... .. . ... : ... .. . ...
ROW 03 : ... .. . ... : ... .. . ... : ... .. . ... : ... .. . ... : ... .. . ...
ROW 04 : ... .. . ... : C-1 01 7 ... : ... .. . ... : ... .. . ... : ... .. . ...
ROW 05 : ... .. . ... : ... .. . ... : ... .. . ... : ... .. . ... : ... .. . ...
ROW 06 : ... .. . ... : C-1 01 7 ... : ... .. . ... : ... .. . ... : ... .. . ...
ROW 07 : ... .. . ... : ... .. . ... : ... .. . ... : ... .. . ... : ... .. . ...
ROW 08 : ... .. . ... : C-1 01 5 ... : ... .. . ... : ... .. . ... : ... .. . ...
ROW 09 : ... .. . ... : ... .. . ... : ... .. . ... : ... .. . ... : ... .. . ...
ROW 0A : ... .. . ... : C-1 01 5 ... : ... .. . ... : ... .. . ... : ... .. . ...
ROW 0B : ... .. . ... : ... .. . ... : ... .. . ... : ... .. . ... : ... .. . ...
ROW 0C : ... .. . ... : C-1 01 4 ... : ... .. . ... : ... .. . ... : ... .. . ...
ROW 0D : ... .. . ... : ... .. . ... : ... .. . ... : ... .. . ... : ... .. . ...
ROW 0E : ... .. . ... : C-1 01 4 ... : ... .. . ... : ... .. . ... : ... .. . ...
ROW 0F : ... .. . ... : ... .. . ... : ... .. . ... : ... .. . ... : ... .. . ...
ROW 10 : ... .. . ... : C-1 01 2 ... : ... .. . ... : ... .. . ... : ... .. . ...
ROW 11 : ... .. . ... : ... .. . ... : ... .. . ... : ... .. . ... : ... .. . ...
ROW 12 : ... .. . ... : C-1 01 2 ... : ... .. . ... : ... .. . ... : ... .. . ...
ROW 13 : ... .. . ... : ... .. . ... : ... .. . ... : ... .. . ... : ... .. . ...
ROW 14 : ... .. . ... : C-1 01 1 ... : ... .. . ... : ... .. . ... : ... .. . ...
ROW 15 : ... .. . ... : ... .. . ... : ... .. . ... : ... .. . ... : ... .. . ...
ROW 16 : ... .. . ... : C-1 01 1 ... : ... .. . ... : ... .. . ... : ... .. . ...
ROW 17 : ... .. . ... : ... .. . ... : ... .. . ... : ... .. . ... : ... .. . ...
ROW 18 : ... .. . ... : C-1 01 F ... : B-3 05 . 30A : ... .. . ... : ... .. . ...
ROW 19 : ... .. . ... : ... .. . ... : ... .. . ... : ... .. . ... : ... .. . ...
ROW 1A : ... .. . ... : ... .. . ... : ... .. . ... : ... .. . ... : ... .. . ...
ROW 1B : ... .. . ... : ... .. . ... : ... .. . ... : ... .. . ... : ... .. . ...
ROW 1C : ... .. . ... : C-1 01 7 ... : ... .. . ... : ... .. . ... : ... .. . ...
ROW 1D : ... .. . ... : ... .. . ... : ... .. . ... : ... .. . ... : ... .. . ...
ROW 1E : ... .. . ... : ... .. . ... : ... .. . ... : ... .. . ... : ... .. . ...
ROW 1F : ... .. . ... : ... .. . ... : ... .. . ... : ... .. . ... : ... .. . ...
ROW 20 : ... .. . ... : C-1 01 5 ... : ... .. . ... : ... .. . ... : ... .. . ...
ROW 21 : ... .. . ... : ... .. . ... : ... .. . ... : ... .. . ... : ... .. . ...
ROW 22 : ... .. . ... : ... .. . ... : ... .. . ... : ... .. . ... : ... .. . ...
ROW 23 : ... .. . ... : ... .. . ... : ... .. . ... : ... .. . ... : ... .. . ...
ROW 24 : ... .. . ... : C-1 01 4 ... : D-4 05 . 30A : ... .. . ... : ... .. . ...
ROW 25 : ... .. . ... : ... .. . ... : ... .. . ... : ... .. . ... : ... .. . ...
ROW 26 : ... .. . ... : C-1 01 F ... : ... .. . ... : ... .. . ... : ... .. . ...
ROW 27 : ... .. . ... : ... .. . ... : ... .. . ... : ... .. . ... : ... .. . ...
ROW 28 : ... .. . ... : C-1 01 F ... : ... .. . ... : ... .. . ... : ... .. . ...
ROW 29 : ... .. . ... : ... .. . ... : ... .. . ... : ... .. . ... : ... .. . ...
ROW 2A : ... .. . ... : C-1 01 7 ... : ... .. . ... : ... .. . ... : ... .. . ...
ROW 2B : ... .. . ... : C-1 01 F ... : ... .. . ... : ... .. . ... : ... .. . ...
ROW 2C : ... .. . ... : C-1 01 1 ... : D#4 05 . 30A : ... .. . ... : ... .. . ...
ROW 2D : ... .. . ... : C-1 01 F ... : ... .. . ... : ... .. . ... : ... .. . ...
ROW 2E : ... .. . ... : C-1 01 5 ... : ... .. . ... : ... .. . ... : ... .. . ...
ROW 2F : ... .. . ... : C-1 01 F ... : ... .. . ... : ... .. . ... : ... .. . ...

PATTERN 07
ROW 00 : ... .. . ... : ... .. . ... : D-4 05 . 300 : ... .. . ... : ... .. . ...
ROW 01 : ... .. . ... : ... .. . ... : ... .. . ... : ... .. . ... : ... .. . ...
ROW 02 : ... .. . ... : ... .. . ... : ... .. . ... : ... .. . ... : ... .. . ...
ROW 03 : ... .. . ... : ... .. . ... : ... .. . ... : ... .. . ... : ... .. . ...
ROW 04 : ... .. . ... : ... .. . ... : ... .. . ... : ... .. . ... : ... .. . ...
ROW 05 : ... .. . ... : ... .. . ... : ... .. . ... : ... .. . ... : ... .. . ...
ROW 06 : ... .. . ... : ... .. . ... : ... .. . ... : ... .. . ... : ... .. . ...
ROW 07 : ... .. . ... : ... .. . ... : ... .. . ... : ... .. . ... : ... .. . ...
ROW 08 : ... .. . ... : ... .. . ... : ... .. . ... : ... .. . ... : ... .. . ...
ROW 09 : ... .. . ... : ... .. . ... : ... .. . ... : ... .. . ... : ... .. . ...
ROW 0A : ... .. . ... : ... .. . ... : ... .. . ... : ... .. . ... : ... .. . ...
ROW 0B : ... .. . ... : ... .. . ... : ... .. . ... : ... .. . ... : ... .. . ...
ROW 0C : ... .. . ... : ... .. . ... : ... .. . ... : ... .. . ... : ... .. . ...
ROW 0D : ... .. . ... : ... .. . ... : ... .. . ... : ... .. . ... : ... .. . ...
ROW 0E : ... .. . ... : ... .. . ... : ... .. . ... : ... .. . ... : ... .. . ...
ROW 0F : ... .. . ... : ... .. . ... : ... .. . ... : ... .. . ... : ... .. . ...
ROW 10 : ... .. . ... : ... .. . ... : D#4 05 . 300 : ... .. . ... : ... .. . ...
ROW 11 : ... .. . ... : ... .. . ... : ... .. . ... : ... .. . ... : ... .. . ...
ROW 12 : ... .. . ... : ... .. . ... : ... .. . ... : ... .. . ... : ... .. . ...
ROW 13 : ... .. . ... : ... .. . ... : ... .. . ... : ... .. . ... : ... .. . ...
ROW 14 : ... .. . ... : ... .. . ... : D-4 05 . ... : ... .. . ... : ... .. . ...
ROW 15 : ... .. . ... : ... .. . ... : ... .. . ... : ... .. . ... : ... .. . ...
ROW 16 : ... .. . ... : ... .. . ... : ... .. . ... : ... .. . ... : ... .. . ...
ROW 17 : ... .. . ... : ... .. . ... : ... .. . ... : ... .. . ... : ... .. . ...
ROW 18 : ... .. . ... : ... .. . ... : C-4 05 . ... : ... .. . ... : ... .. . ...
ROW 19 : ... .. . ... : ... .. . ... : ... .. . ... : ... .. . ... : ... .. . ...
ROW 1A : ... .. . ... : ... .. . ... : ... .. . ... : ... .. . ... : ... .. . ...
ROW 1B : ... .. . ... : ... .. . ... : ... .. . ... : ... .. . ... : ... .. . ...
ROW 1C : ... .. . ... : ... .. . ... : ... .. . ... : ... .. . ... : ... .. . ...
ROW 1D : ... .. . ... : ... .. . ... : ... .. . ... : ... .. . ... : ... .. . ...
ROW 1E : ... .. . ... : ... .. . ... : ... .. . ... : ... .. . ... : ... .. . ...
ROW 1F : ... .. . ... : ... .. . ... : ... .. . ... : ... .. . ... : ... .. . ...
ROW 20 : ... .. . ... : ... .. . ... : ... .. . ... : ... .. . ... : ... .. . ...
ROW 21 : ... .. . ... : ... .. . ... : ... .. . ... : ... .. . ... : ... .. . ...
ROW 22 : ... .. . ... : ... .. . ... : ... .. . ... : ... .. . ... : ... .. . ...
ROW 23 : ... .. . ... : ... .. . ... : ... .. . ... : ... .. . ... : ... .. . ...
ROW 24 : ... .. . ... : ... .. . ... : ... .. . ... : ... .. . ... : ... .. . ...
ROW 25 : ... .. . ... : ... .. . ... : ... .. . ... : ... .. . ... : ... .. . ...
ROW 26 : ... .. . ... : ... .. . ... : ... .. . ... : ... .. . ... : ... .. . ...
ROW 27 : ... .. . ... : ... .. . ... : ... .. . ... : ... .. . ... : ... .. . ...
ROW 28 : ... .. . ... : ... .. . ... : ... .. . ... : ... .. . ... : ... .. . ...
ROW 29 : ... .. . ... : ... .. . ... : ... .. . ... : ... .. . ... : ... .. . ...
ROW 2A : ... .. . ... : ... .. . ... : ... .. . ... : ... .. . ... : ... .. . ...
ROW 2B : ... .. . ... : ... .. . ... : ... .. . ... : ... .. . ... : ... .. . ...
ROW 2C : ... .. . ... : ... .. . ... : ... .. . ... : ... .. . ... : ... .. . ...
ROW 2D : ... .. . ... : ... .. . ... : ... .. . ... : ... .. . ... : ... .. . ...
ROW 2E : ... .. . ... : ... .. . ... : ... .. . ... : ... .. . ... : ... .. . ...
ROW 2F : ... .. . ... : ... .. . ... : ... .. . ... : ... .. . ... : ... .. . ...

PATTERN 08
ROW 00 : ... .. . ... : ... .. . ... : A#3 05 . 30A : ... .. . ... : ... .. . ...
ROW 01 : ... .. . ... : ... .. . ... : ... .. . ... : ... .. . ... : ... .. . ...
ROW 02 : ... .. . ... : ... .. . ... : ... .. . ... : ... .. . ... : ... .. . ...
ROW 03 : ... .. . ... : ... .. . ... : ... .. . ... : ... .. . ... : ... .. . ...
ROW 04 : ... .. . ... : ... .. . ... : ... .. . ... : ... .. . ... : ... .. . ...
ROW 05 : ... .. . ... : ... .. . ... : ... .. . ... : ... .. . ... : ... .. . ...
ROW 06 : ... .. . ... : ... .. . ... : ... .. . ... : ... .. . ... : ... .. . ...
ROW 07 : ... .. . ... : ... .. . ... : ... .. . ... : ... .. . ... : ... .. . ...
ROW 08 : ... .. . ... : ... .. . ... : ... .. . ... : ... .. . ... : ... .. . ...
ROW 09 : ... .. . ... : ... .. . ... : ... .. . ... : ... .. . ... : ... .. . ...
ROW 0A : ... .. . ... : ... .. . ... : ... .. . ... : ... .. . ... : ... .. . ...
ROW 0B : ... .. . ... : ... .. . ... : ... .. . ... : ... .. . ... : ... .. . ...
ROW 0C : ... .. . ... : ... .. . ... : ... .. . ... : ... .. . ... : ... .. . ...
ROW 0D : ... .. . ... : ... .. . ... : ... .. . ... : ... .. . ... : ... .. . ...
ROW 0E : ... .. . ... : ... .. . ... : ... .. . ... : ... .. . ... : ... .. . ...
ROW 0F : ... .. . ... : ... .. . ... : ... .. . ... : ... .. . ... : ... .. . ...
ROW 10 : ... .. . ... : ... .. . ... : ... .. . ... : ... .. . ... : ... .. . ...
ROW 11 : ... .. . ... : ... .. . ... : ... .. . ... : ... .. . ... : ... .. . ...
ROW 12 : ... .. . ... : ... .. . ... : ... .. . ... : ... .. . ... : ... .. . ...
ROW 13 : ... .. . ... : ... .. . ... : ... .. . ... : ... .. . ... : ... .. . ...
ROW 14 : ... .. . ... : ... .. . ... : ... .. . ... : ... .. . ... : ... .. . ...
ROW 15 : ... .. . ... : ... .. . ... : ... .. . ... : ... .. . ... : ... .. . ...
ROW 16 : ... .. . ... : ... .. . ... : ... .. . ... : ... .. . ... : ... .. . ...
ROW 17 : ... .. . ... : ... .. . ... : ... .. . ... : ... .. . ... : ... .. . ...
ROW 18 : ... .. . ... : ... .. . ... : ... .. . ... : ... .. . ... : ... .. . ...
ROW 19 : ... .. . ... : ... .. . ... : ... .. . ... : ... .. . ... : ... .. . ...
ROW 1A : ... .. . ... : ... .. . ... : ... .. . ... : ... .. . ... : ... .. . ...
ROW 1B : ... .. . ... : ... .. . ... : ... .. . ... : ... .. . ... : ... .. . ...
ROW 1C : ... .. . ... : ... .. . ... : ... .. . ... : ... .. . ... : ... .. . ...
ROW 1D : ... .. . ... : ... .. . ... : ... .. . ... : ... .. . ... : ... .. . ...
ROW 1E : ... .. . ... : ... .. . ... : ... .. . ... : ... .. . ... : ... .. . ...
ROW 1F : ... .. . ... : ... .. . ... : ... .. . ... : ... .. . ... : ... .. . ...
ROW 20 : ... .. . ... : ... .. . ... : ... .. . ... : ... .. . ... : ... .. . ...
ROW 21 : ... .. . ... : ... .. . ... : ... .. . ... : ... .. . ... : ... .. . ...
ROW 22 : ... .. . ... : ... .. . ... : ... .. . ... : ... .. . ... : ... .. . ...
ROW 23 : ... .. . ... : ... .. . ... : ... .. . ... : ... .. . ... : ... .. . ...
ROW 24 : ... .. . ... : ... .. . ... : B-3 05 . 300 : ... .. . ... : ... .. . ...
ROW 25 : ... .. . ... : ... .. . ... : ... .. . ... : ... .. . ... : ... .. . ...
ROW 26 : ... .. . ... : ... .. . ... : ... .. . ... : ... .. . ... : ... .. . ...
ROW 27 : ... .. . ... : ... .. . ... : ... .. . ... : ... .. . ... : ... .. . ...
ROW 28 : ... .. . ... : ... .. . ... : ... .. . ... : ... .. . ... : ... .. . ...
ROW 29 : ... .. . ... : ... .. . ... : ... .. . ... : ... .. . ... : ... .. . ...
ROW 2A : ... .. . ... : ... .. . ... : ... .. . ... : ... .. . ... : ... .. . ...
ROW 2B : ... .. . ... : ... .. . ... : ... .. . ... : ... .. . ... : ... .. . ...
ROW 2C : ... .. . ... : ... .. . ... : D-3 05 . 300 : ... .. . ... : ... .. . ...
ROW 2D : ... .. . ... : ... .. . ... : ... .. . ... : ... .. . ... : ... .. . ...
ROW 2E : ... .. . ... : ... .. . ... : ... .. . ... : ... .. . ... : ... .. . ...
ROW 2F : ... .. . ... : ... .. . ... : ... .. . ... : ... .. . ... : ... .. . ...

PATTERN 0A
ROW 00 : ... .. . ... : ... .. . ... : ... .. . ... : ... .. . ... : ... .. . ...
ROW 01 : ... .. . ... : C-2 00 0 ... : ... .. . ... : ... .. . ... : ... .. . ...
ROW 02 : ... .. . ... : ... .. . ... : ... .. . ... : ... .. . ... : ... .. . ...
ROW 03 : ... .. . ... : D#2 00 0 ... : ... .. . ... : ... .. . ... : ... .. . ...
ROW 04 : ... .. . ... : ... .. . ... : ... .. . ... : ... .. . ... : ... .. . ...
ROW 05 : ... .. . ... : G-2 00 0 ... : ... .. . ... : ... .. . ... : ... .. . ...
ROW 06 : ... .. . ... : ... .. . ... : ... .. . ... : ... .. . ... : ... .. . ...
ROW 07 : ... .. . ... : G#2 00 0 ... : ... .. . ... : ... .. . ... : ... .. . ...
ROW 08 : ... .. . ... : ... .. . ... : ... .. . ... : ... .. . ... : ... .. . ...
ROW 09 : ... .. . ... : G-2 00 1 ... : ... .. . ... : ... .. . ... : ... .. . ...
ROW 0A : ... .. . ... : ... .. . ... : ... .. . ... : ... .. . ... : ... .. . ...
ROW 0B : ... .. . ... : D#2 00 1 ... : ... .. . ... : ... .. . ... : ... .. . ...
ROW 0C : ... .. . ... : ... .. . ... : ... .. . ... : ... .. . ... : ... .. . ...
ROW 0D : ... .. . ... : C-2 00 1 ... : ... .. . ... : ... .. . ... : ... .. . ...
ROW 0E : ... .. . ... : ... .. . ... : ... .. . ... : ... .. . ... : ... .. . ...
ROW 0F : ... .. . ... : D#2 00 2 ... : ... .. . ... : ... .. . ... : ... .. . ...
ROW 10 : ... .. . ... : ... .. . ... : ... .. . ... : ... .. . ... : ... .. . ...
ROW 11 : ... .. . ... : G-2 00 2 ... : ... .. . ... : ... .. . ... : ... .. . ...
ROW 12 : ... .. . ... : ... .. . ... : ... .. . ... : ... .. . ... : ... .. . ...
ROW 13 : ... .. . ... : G#2 00 2 ... : ... .. . ... : ... .. . ... : ... .. . ...
ROW 14 : ... .. . ... : ... .. . ... : ... .. . ... : ... .. . ... : ... .. . ...
ROW 15 : ... .. . ... : G-2 00 3 ... : ... .. . ... : ... .. . ... : ... .. . ...
ROW 16 : ... .. . ... : ... .. . ... : ... .. . ... : ... .. . ... : ... .. . ...
ROW 17 : ... .. . ... : D#2 00 3 ... : ... .. . ... : ... .. . ... : ... .. . ...
ROW 18 : ... .. . ... : ... .. . ... : ... .. . ... : ... .. . ... : ... .. . ...
ROW 19 : ... .. . ... : C-2 00 3 ... : ... .. . ... : ... .. . ... : ... .. . ...
ROW 1A : ... .. . ... : ... .. . ... : ... .. . ... : ... .. . ... : ... .. . ...
ROW 1B : ... .. . ... : D#2 00 3 ... : ... .. . ... : ... .. . ... : ... .. . ...
ROW 1C : ... .. . ... : ... .. . ... : ... .. . ... : ... .. . ... : ... .. . ...
ROW 1D : ... .. . ... : G-2 00 4 ... : ... .. . ... : ... .. . ... : ... .. . ...
ROW 1E : ... .. . ... : ... .. . ... : ... .. . ... : ... .. . ... : ... .. . ...
ROW 1F : ... .. . ... : G#2 00 4 ... : ... .. . ... : ... .. . ... : ... .. . ...
ROW 20 : ... .. . ... : ... .. . ... : ... .. . ... : ... .. . ... : ... .. . ...
ROW 21 : ... .. . ... : G-2 00 4 ... : ... .. . ... : ... .. . ... : ... .. . ...
ROW 22 : ... .. . ... : ... .. . ... : ... .. . ... : ... .. . ... : ... .. . ...
ROW 23 : ... .. . ... : D#2 00 5 ... : ... .. . ... : ... .. . ... : ... .. . ...
ROW 24 : ... .. . ... : ... .. . ... : ... .. . ... : ... .. . ... : ... .. . ...
ROW 25 : ... .. . ... : C-2 00 5 ... : ... .. . ... : ... .. . ... : ... .. . ...
ROW 26 : ... .. . ... : ... .. . ... : ... .. . ... : ... .. . ... : ... .. . ...
ROW 27 : ... .. . ... : D#2 00 5 ... : ... .. . ... : ... .. . ... : ... .. . ...
ROW 28 : ... .. . ... : ... .. . ... : ... .. . ... : ... .. . ... : ... .. . ...
ROW 29 : ... .. . ... : G-2 00 6 ... : ... .. . ... : ... .. . ... : ... .. . ...
ROW 2A : ... .. . ... : ... .. . ... : ... .. . ... : ... .. . ... : ... .. . ...
ROW 2B : ... .. . ... : G#2 00 6 ... : ... .. . ... : ... .. . ... : ... .. . ...
ROW 2C : ... .. . ... : ... .. . ... : ... .. . ... : ... .. . ... : ... .. . ...
ROW 2D : ... .. . ... : G-2 00 6 ... : ... .. . ... : ... .. . ... : ... .. . ...
ROW 2E : ... .. . ... : ... .. . ... : ... .. . ... : ... .. . ... : ... .. . ...
ROW 2F : ... .. . ... : D#2 00 7 ... : ... .. . ... : ... .. . ... : ... .. . ...

TRACK  64   6  80 "Cutscene 1"
COLUMNS : 1 1 1 1 1

ORDER 00 : 00 00 00 00 00
ORDER 01 : 01 01 00 00 00

PATTERN 00
ROW 00 : A#2 03 F ... : ... .. . ... : ... .. . ... : ... .. . ... : ... .. . ...
ROW 01 : ... .. . ... : A#3 03 . ... : ... .. . ... : ... .. . ... : ... .. . ...
ROW 02 : F-3 03 . ... : ... .. . ... : ... .. . ... : ... .. . ... : ... .. . ...
ROW 03 : ... .. . ... : F-4 03 . ... : ... .. . ... : ... .. . ... : ... .. . ...
ROW 04 : C#4 03 . ... : ... .. . ... : ... .. . ... : ... .. . ... : ... .. . ...
ROW 05 : ... .. . ... : C#5 03 . ... : ... .. . ... : ... .. . ... : ... .. . ...
ROW 06 : F-3 03 . ... : ... .. . ... : ... .. . ... : ... .. . ... : ... .. . ...
ROW 07 : ... .. . ... : F-4 03 . ... : ... .. . ... : ... .. . ... : ... .. . ...
ROW 08 : C-4 03 . ... : ... .. . ... : ... .. . ... : ... .. . ... : ... .. . ...
ROW 09 : ... .. . ... : C-5 03 . ... : ... .. . ... : ... .. . ... : ... .. . ...
ROW 0A : F-3 03 . ... : ... .. . ... : ... .. . ... : ... .. . ... : ... .. . ...
ROW 0B : ... .. . ... : F-4 03 . ... : ... .. . ... : ... .. . ... : ... .. . ...
ROW 0C : A#3 03 . ... : ... .. . ... : ... .. . ... : ... .. . ... : ... .. . ...
ROW 0D : ... .. . ... : A#4 03 . ... : ... .. . ... : ... .. . ... : ... .. . ...
ROW 0E : F-3 03 . ... : ... .. . ... : ... .. . ... : ... .. . ... : ... .. . ...
ROW 0F : ... .. . ... : F-4 03 . ... : ... .. . ... : ... .. . ... : ... .. . ...
ROW 10 : A#2 03 . ... : ... .. . ... : ... .. . ... : ... .. . ... : ... .. . ...
ROW 11 : ... .. . ... : A#3 03 . ... : ... .. . ... : ... .. . ... : ... .. . ...
ROW 12 : F-3 03 . ... : ... .. . ... : ... .. . ... : ... .. . ... : ... .. . ...
ROW 13 : ... .. . ... : F-4 03 . ... : ... .. . ... : ... .. . ... : ... .. . ...
ROW 14 : C#4 03 . ... : ... .. . ... : ... .. . ... : ... .. . ... : ... .. . ...
ROW 15 : ... .. . ... : C#5 03 . ... : ... .. . ... : ... .. . ... : ... .. . ...
ROW 16 : F-3 03 . ... : ... .. . ... : ... .. . ... : ... .. . ... : ... .. . ...
ROW 17 : ... .. . ... : F-4 03 . ... : ... .. . ... : ... .. . ... : ... .. . ...
ROW 18 : C-4 03 . ... : ... .. . ... : ... .. . ... : ... .. . ... : ... .. . ...
ROW 19 : ... .. . ... : C-5 03 . ... : ... .. . ... : ... .. . ... : ... .. . ...
ROW 1A : F-3 03 . ... : ... .. . ... : ... .. . ... : ... .. . ... : ... .. . ...
ROW 1B : ... .. . ... : F-4 03 . ... : ... .. . ... : ... .. . ... : ... .. . ...
ROW 1C : A#3 03 . ... : ... .. . ... : ... .. . ... : ... .. . ... : ... .. . ...
ROW 1D : ... .. . ... : A#4 03 . ... : ... .. . ... : ... .. . ... : ... .. . ...
ROW 1E : F-3 03 . ... : ... .. . ... : ... .. . ... : ... .. . ... : ... .. . ...
ROW 1F : ... .. . ... : F-4 03 . ... : ... .. . ... : ... .. . ... : ... .. . ...
ROW 20 : G#2 03 . ... : ... .. . ... : ... .. . ... : ... .. . ... : ... .. . ...
ROW 21 : ... .. . ... : G#3 03 . ... : ... .. . ... : ... .. . ... : ... .. . ...
ROW 22 : D#3 03 . ... : ... .. . ... : ... .. . ... : ... .. . ... : ... .. . ...
ROW 23 : ... .. . ... : D#4 03 . ... : ... .. . ... : ... .. . ... : ... .. . ...
ROW 24 : C-4 03 . ... : ... .. . ... : ... .. . ... : ... .. . ... : ... .. . ...
ROW 25 : ... .. . ... : C-5 03 . ... : ... .. . ... : ... .. . ... : ... .. . ...
ROW 26 : D#3 03 . ... : ... .. . ... : ... .. . ... : ... .. . ... : ... .. . ...
ROW 27 : ... .. . ... : D#4 03 . ... : ... .. . ... : ... .. . ... : ... .. . ...
ROW 28 : A#3 03 . ... : ... .. . ... : ... .. . ... : ... .. . ... : ... .. . ...
ROW 29 : ... .. . ... : A#4 03 . ... : ... .. . ... : ... .. . ... : ... .. . ...
ROW 2A : D#3 03 . ... : ... .. . ... : ... .. . ... : ... .. . ... : ... .. . ...
ROW 2B : ... .. . ... : D#4 03 . ... : ... .. . ... : ... .. . ... : ... .. . ...
ROW 2C : G#3 03 . ... : ... .. . ... : ... .. . ... : ... .. . ... : ... .. . ...
ROW 2D : ... .. . ... : G#4 03 . ... : ... .. . ... : ... .. . ... : ... .. . ...
ROW 2E : D#3 03 . ... : ... .. . ... : ... .. . ... : ... .. . ... : ... .. . ...
ROW 2F : ... .. . ... : D#4 03 . ... : ... .. . ... : ... .. . ... : ... .. . ...
ROW 30 : G#2 03 . ... : ... .. . ... : ... .. . ... : ... .. . ... : ... .. . ...
ROW 31 : ... .. . ... : G#3 03 . ... : ... .. . ... : ... .. . ... : ... .. . ...
ROW 32 : D#3 03 . ... : ... .. . ... : ... .. . ... : ... .. . ... : ... .. . ...
ROW 33 : ... .. . ... : D#4 03 . ... : ... .. . ... : ... .. . ... : ... .. . ...
ROW 34 : C-4 03 . ... : ... .. . ... : ... .. . ... : ... .. . ... : ... .. . ...
ROW 35 : ... .. . ... : C-5 03 . ... : ... .. . ... : ... .. . ... : ... .. . ...
ROW 36 : D#3 03 . ... : ... .. . ... : ... .. . ... : ... .. . ... : ... .. . ...
ROW 37 : ... .. . ... : D#4 03 . ... : ... .. . ... : ... .. . ... : ... .. . ...
ROW 38 : A#3 03 . ... : ... .. . ... : ... .. . ... : ... .. . ... : ... .. . ...
ROW 39 : ... .. . ... : A#4 03 . ... : ... .. . ... : ... .. . ... : ... .. . ...
ROW 3A : D#3 03 . ... : ... .. . ... : ... .. . ... : ... .. . ... : ... .. . ...
ROW 3B : ... .. . ... : D#4 03 . ... : ... .. . ... : ... .. . ... : ... .. . ...
ROW 3C : G#3 03 . ... : ... .. . ... : ... .. . ... : ... .. . ... : ... .. . ...
ROW 3D : ... .. . ... : G#4 03 . ... : ... .. . ... : ... .. . ... : ... .. . ...
ROW 3E : D#3 03 . ... : ... .. . ... : ... .. . ... : ... .. . ... : ... .. . ...
ROW 3F : ... .. . ... : D#4 03 . ... : ... .. . ... : ... .. . ... : ... .. . ...

PATTERN 01
ROW 00 : C#3 03 . ... : ... .. . ... : ... .. . ... : ... .. . ... : ... .. . ...
ROW 01 : ... .. . ... : C#4 03 . ... : ... .. . ... : ... .. . ... : ... .. . ...
ROW 02 : G#3 03 . ... : ... .. . ... : ... .. . ... : ... .. . ... : ... .. . ...
ROW 03 : ... .. . ... : G#4 03 . ... : ... .. . ... : ... .. . ... : ... .. . ...
ROW 04 : F-4 03 . ... : ... .. . ... : ... .. . ... : ... .. . ... : ... .. . ...
ROW 05 : ... .. . ... : F-5 03 . ... : ... .. . ... : ... .. . ... : ... .. . ...
ROW 06 : G#3 03 . ... : ... .. . ... : ... .. . ... : ... .. . ... : ... .. . ...
ROW 07 : ... .. . ... : G#4 03 . ... : ... .. . ... : ... .. . ... : ... .. . ...
ROW 08 : D#4 03 . ... : ... .. . ... : ... .. . ... : ... .. . ... : ... .. . ...
ROW 09 : ... .. . ... : D#5 03 . ... : ... .. . ... : ... .. . ... : ... .. . ...
ROW 0A : G#3 03 . ... : ... .. . ... : ... .. . ... : ... .. . ... : ... .. . ...
ROW 0B : ... .. . ... : G#4 03 . ... : ... .. . ... : ... .. . ... : ... .. . ...
ROW 0C : C#4 03 . ... : ... .. . ... : ... .. . ... : ... .. . ... : ... .. . ...
ROW 0D : ... .. . ... : C#5 03 . ... : ... .. . ... : ... .. . ... : ... .. . ...
ROW 0E : G#3 03 . ... : ... .. . ... : ... .. . ... : ... .. . ... : ... .. . ...
ROW 0F : ... .. . ... : G#4 03 . ... : ... .. . ... : ... .. . ... : ... .. . ...
ROW 10 : C#3 03 . ... : ... .. . ... : ... .. . ... : ... .. . ... : ... .. . ...
ROW 11 : ... .. . ... : C#4 03 . ... : ... .. . ... : ... .. . ... : ... .. . ...
ROW 12 : G#3 03 . ... : ... .. . ... : ... .. . ... : ... .. . ... : ... .. . ...
ROW 13 : ... .. . ... : G#4 03 . ... : ... .. . ... : ... .. . ... : ... .. . ...
ROW 14 : F-4 03 . ... : ... .. . ... : ... .. . ... : ... .. . ... : ... .. . ...
ROW 15 : ... .. . ... : F-5 03 . ... : ... .. . ... : ... .. . ... : ... .. . ...
ROW 16 : G#3 03 . ... : ... .. . ... : ... .. . ... : ... .. . ... : ... .. . ...
ROW 17 : ... .. . ... : G#4 03 . ... : ... .. . ... : ... .. . ... : ... .. . ...
ROW 18 : D#4 03 . ... : ... .. . ... : ... .. . ... : ... .. . ... : ... .. . ...
ROW 19 : ... .. . ... : D#5 03 . ... : ... .. . ... : ... .. . ... : ... .. . ...
ROW 1A : G#3 03 . ... : ... .. . ... : ... .. . ... : ... .. . ... : ... .. . ...
ROW 1B : ... .. . ... : G#4 03 . ... : ... .. . ... : ... .. . ... : ... .. . ...
ROW 1C : C#4 03 . ... : ... .. . ... : ... .. . ... : ... .. . ... : ... .. . ...
ROW 1D : ... .. . ... : C#5 03 . ... : ... .. . ... : ... .. . ... : ... .. . ...
ROW 1E : G#3 03 . ... : ... .. . ... : ... .. . ... : ... .. . ... : ... .. . ...
ROW 1F : ... .. . ... : G#4 03 . ... : ... .. . ... : ... .. . ... : ... .. . ...
ROW 20 : B-2 03 . ... : ... .. . ... : ... .. . ... : ... .. . ... : ... .. . ...
ROW 21 : ... .. . ... : B-3 03 . ... : ... .. . ... : ... .. . ... : ... .. . ...
ROW 22 : F#3 03 . ... : ... .. . ... : ... .. . ... : ... .. . ... : ... .. . ...
ROW 23 : ... .. . ... : F#4 03 . ... : ... .. . ... : ... .. . ... : ... .. . ...
ROW 24 : D#4 03 . ... : ... .. . ... : ... .. . ... : ... .. . ... : ... .. . ...
ROW 25 : ... .. . ... : D#5 03 . ... : ... .. . ... : ... .. . ... : ... .. . ...
ROW 26 : F#3 03 . ... : ... .. . ... : ... .. . ... : ... .. . ... : ... .. . ...
ROW 27 : ... .. . ... : F#4 03 . ... : ... .. . ... : ... .. . ... : ... .. . ...
ROW 28 : C#4 03 . ... : ... .. . ... : ... .. . ... : ... .. . ... : ... .. . ...
ROW 29 : ... .. . ... : C#5 03 . ... : ... .. . ... : ... .. . ... : ... .. . ...
ROW 2A : F#3 03 . ... : ... .. . ... : ... .. . ... : ... .. . ... : ... .. . ...
ROW 2B : ... .. . ... : F#4 03 . ... : ... .. . ... : ... .. . ... : ... .. . ...
ROW 2C : B-3 03 . ... : ... .. . ... : ... .. . ... : ... .. . ... : ... .. . ...
ROW 2D : ... .. . ... : B-4 03 . ... : ... .. . ... : ... .. . ... : ... .. . ...
ROW 2E : F#3 03 . ... : ... .. . ... : ... .. . ... : ... .. . ... : ... .. . ...
ROW 2F : ... .. . ... : F#4 03 . ... : ... .. . ... : ... .. . ... : ... .. . ...
ROW 30 : B-2 03 . ... : ... .. . ... : ... .. . ... : ... .. . ... : ... .. . ...
ROW 31 : ... .. . ... : B-3 03 . ... : ... .. . ... : ... .. . ... : ... .. . ...
ROW 32 : F#3 03 . ... : ... .. . ... : ... .. . ... : ... .. . ... : ... .. . ...
ROW 33 : ... .. . ... : F#4 03 . ... : ... .. . ... : ... .. . ... : ... .. . ...
ROW 34 : D#4 03 . ... : ... .. . ... : ... .. . ... : ... .. . ... : ... .. . ...
ROW 35 : ... .. . ... : D#5 03 . ... : ... .. . ... : ... .. . ... : ... .. . ...
ROW 36 : F#3 03 . ... : ... .. . ... : ... .. . ... : ... .. . ... : ... .. . ...
ROW 37 : ... .. . ... : F#4 03 . ... : ... .. . ... : ... .. . ... : ... .. . ...
ROW 38 : C#4 03 . ... : ... .. . ... : ... .. . ... : ... .. . ... : ... .. . ...
ROW 39 : ... .. . ... : C#5 03 . ... : ... .. . ... : ... .. . ... : ... .. . ...
ROW 3A : F#3 03 . ... : ... .. . ... : ... .. . ... : ... .. . ... : ... .. . ...
ROW 3B : ... .. . ... : F#4 03 . ... : ... .. . ... : ... .. . ... : ... .. . ...
ROW 3C : B-3 03 . ... : ... .. . ... : ... .. . ... : ... .. . ... : ... .. . ...
ROW 3D : ... .. . ... : B-4 03 . ... : ... .. . ... : ... .. . ... : ... .. . ...
ROW 3E : F#3 03 . ... : ... .. . ... : ... .. . ... : ... .. . ... : ... .. . ...
ROW 3F : ... .. . ... : F#4 03 . ... : ... .. . ... : ... .. . ... : ... .. . ...

TRACK  64   6 126 "City"
COLUMNS : 1 1 1 1 1

ORDER 00 : 00 00 00 00 00
ORDER 01 : 01 01 01 01 01
ORDER 02 : 02 02 01 01 01

PATTERN 00
ROW 00 : ... .. . ... : ... .. . ... : ... .. . ... : ... .. . ... : C#3 07 . ...
ROW 01 : ... .. . ... : ... .. . ... : ... .. . ... : ... .. . ... : C#3 07 . ...
ROW 02 : ... .. . ... : ... .. . ... : ... .. . ... : ... .. . ... : C#3 07 . ...
ROW 03 : ... .. . ... : ... .. . ... : ... .. . ... : ... .. . ... : ... .. . ...
ROW 04 : ... .. . ... : ... .. . ... : ... .. . ... : ... .. . ... : C#3 07 . ...
ROW 05 : ... .. . ... : ... .. . ... : ... .. . ... : ... .. . ... : ... .. . ...
ROW 06 : ... .. . ... : ... .. . ... : G#4 05 F 220 : ... .. . ... : C#3 07 . ...
ROW 07 : ... .. . ... : ... .. . ... : ... .. 0 ... : ... .. . ... : ... .. . ...
ROW 08 : ... .. . ... : ... .. . ... : B-4 05 F 220 : ... .. . ... : C#3 07 . ...
ROW 09 : ... .. . ... : ... .. . ... : ... .. 0 ... : ... .. . ... : ... .. . ...
ROW 0A : ... .. . ... : ... .. . ... : F#4 05 F 220 : ... .. . ... : C#3 07 . ...
ROW 0B : ... .. . ... : ... .. . ... : ... .. 0 ... : ... .. . ... : C#3 07 . B01
ROW 0C : ... .. . ... : ... .. . ... : ... .. . ... : ... .. . ... : ... .. . ...
ROW 0D : ... .. . ... : ... .. . ... : ... .. . ... : ... .. . ... : ... .. . ...
ROW 0E : ... .. . ... : ... .. . ... : ... .. . ... : ... .. . ... : ... .. . ...
ROW 0F : ... .. . ... : ... .. . ... : ... .. . ... : ... .. . ... : ... .. . ...
ROW 10 : ... .. . ... : ... .. . ... : ... .. . ... : ... .. . ... : ... .. . ...
ROW 11 : ... .. . ... : ... .. . ... : ... .. . ... : ... .. . ... : ... .. . ...
ROW 12 : ... .. . ... : ... .. . ... : ... .. . ... : ... .. . ... : ... .. . ...
ROW 13 : ... .. . ... : ... .. . ... : ... .. . ... : ... .. . ... : ... .. . ...
ROW 14 : ... .. . ... : ... .. . ... : ... .. . ... : ... .. . ... : ... .. . ...
ROW 15 : ... .. . ... : ... .. . ... : ... .. . ... : ... .. . ... : ... .. . ...
ROW 16 : ... .. . ... : ... .. . ... : ... .. . ... : ... .. . ... : ... .. . ...
ROW 17 : ... .. . ... : ... .. . ... : ... .. . ... : ... .. . ... : ... .. . ...
ROW 18 : ... .. . ... : ... .. . ... : ... .. . ... : ... .. . ... : ... .. . ...
ROW 19 : ... .. . ... : ... .. . ... : ... .. . ... : ... .. . ... : ... .. . ...
ROW 1A : ... .. . ... : ... .. . ... : ... .. . ... : ... .. . ... : ... .. . ...
ROW 1B : ... .. . ... : ... .. . ... : ... .. . ... : ... .. . ... : ... .. . ...
ROW 1C : ... .. . ... : ... .. . ... : ... .. . ... : ... .. . ... : ... .. . ...
ROW 1D : ... .. . ... : ... .. . ... : ... .. . ... : ... .. . ... : ... .. . ...
ROW 1E : ... .. . ... : ... .. . ... : ... .. . ... : ... .. . ... : ... .. . ...
ROW 1F : ... .. . ... : ... .. . ... : ... .. . ... : ... .. . ... : ... .. . ...
ROW 20 : ... .. . ... : ... .. . ... : ... .. . ... : ... .. . ... : ... .. . ...
ROW 21 : ... .. . ... : ... .. . ... : ... .. . ... : ... .. . ... : ... .. . ...
ROW 22 : ... .. . ... : ... .. . ... : ... .. . ... : ... .. . ... : ... .. . ...
ROW 23 : ... .. . ... : ... .. . ... : ... .. . ... : ... .. . ... : ... .. . ...
ROW 24 : ... .. . ... : ... .. . ... : ... .. . ... : ... .. . ... : ... .. . ...
ROW 25 : ... .. . ... : ... .. . ... : ... .. . ... : ... .. . ... : ... .. . ...
ROW 26 : ... .. . ... : ... .. . ... : ... .. . ... : ... .. . ... : ... .. . ...
ROW 27 : ... .. . ... : ... .. . ... : ... .. . ... : ... .. . ... : ... .. . ...
ROW 28 : ... .. . ... : ... .. . ... : ... .. . ... : ... .. . ... : ... .. . ...
ROW 29 : ... .. . ... : ... .. . ... : ... .. . ... : ... .. . ... : ... .. . ...
ROW 2A : ... .. . ... : ... .. . ... : ... .. . ... : ... .. . ... : ... .. . ...
ROW 2B : ... .. . ... : ... .. . ... : ... .. . ... : ... .. . ... : ... .. . ...
ROW 2C : ... .. . ... : ... .. . ... : ... .. . ... : ... .. . ... : ... .. . ...
ROW 2D : ... .. . ... : ... .. . ... : ... .. . ... : ... .. . ... : ... .. . ...
ROW 2E : ... .. . ... : ... .. . ... : ... .. . ... : ... .. . ... : ... .. . ...
ROW 2F : ... .. . ... : ... .. . ... : ... .. . ... : ... .. . ... : ... .. . ...
ROW 30 : ... .. . ... : ... .. . ... : ... .. . ... : ... .. . ... : ... .. . ...
ROW 31 : ... .. . ... : ... .. . ... : ... .. . ... : ... .. . ... : ... .. . ...
ROW 32 : ... .. . ... : ... .. . ... : ... .. . ... : ... .. . ... : ... .. . ...
ROW 33 : ... .. . ... : ... .. . ... : ... .. . ... : ... .. . ... : ... .. . ...
ROW 34 : ... .. . ... : ... .. . ... : ... .. . ... : ... .. . ... : ... .. . ...
ROW 35 : ... .. . ... : ... .. . ... : ... .. . ... : ... .. . ... : ... .. . ...
ROW 36 : ... .. . ... : ... .. . ... : ... .. . ... : ... .. . ... : ... .. . ...
ROW 37 : ... .. . ... : ... .. . ... : ... .. . ... : ... .. . ... : ... .. . ...
ROW 38 : ... .. . ... : ... .. . ... : ... .. . ... : ... .. . ... : ... .. . ...
ROW 39 : ... .. . ... : ... .. . ... : ... .. . ... : ... .. . ... : ... .. . ...
ROW 3A : ... .. . ... : ... .. . ... : ... .. . ... : ... .. . ... : ... .. . ...
ROW 3B : ... .. . ... : ... .. . ... : ... .. . ... : ... .. . ... : ... .. . ...
ROW 3C : ... .. . ... : ... .. . ... : ... .. . ... : ... .. . ... : ... .. . ...
ROW 3D : ... .. . ... : ... .. . ... : ... .. . ... : ... .. . ... : ... .. . ...
ROW 3E : ... .. . ... : ... .. . ... : ... .. . ... : ... .. . ... : ... .. . ...
ROW 3F : ... .. . ... : ... .. . ... : ... .. . ... : ... .. . ... : ... .. . ...

PATTERN 01
ROW 00 : F-1 06 6 ... : ... .. . ... : G-5 05 F 28F : F-# 07 F ... : ... .. . ...
ROW 01 : F-1 06 . ... : ... .. . ... : ... .. 0 ... : ... .. . ... : ... .. . ...
ROW 02 : F-1 06 . ... : ... .. . ... : G-5 05 F 28F : F-# 07 F ... : ... .. . ...
ROW 03 : ... .. . ... : ... .. . ... : ... .. 0 ... : ... .. . ... : ... .. . ...
ROW 04 : C-2 06 . ... : ... .. . ... : ... .. . ... : F-# 07 F ... : C#3 07 . ...
ROW 05 : ... .. . ... : ... .. . ... : ... .. . ... : ... .. . ... : ... .. . ...
ROW 06 : F-1 06 . ... : ... .. . ... : ... .. . ... : F-# 07 F ... : ... .. . ...
ROW 07 : ... .. . ... : ... .. . ... : ... .. . ... : ... .. . ... : ... .. . ...
ROW 08 : A#1 06 . ... : ... .. . ... : G-5 05 F 28F : F-# 07 F ... : ... .. . ...
ROW 09 : ... .. . ... : ... .. . ... : ... .. 0 ... : ... .. . ... : ... .. . ...
ROW 0A : F-1 06 . ... : ... .. . ... : ... .. . ... : F-# 07 F ... : ... .. . ...
ROW 0B : ... .. . ... : ... .. . ... : ... .. . ... : ... .. . ... : ... .. . ...
ROW 0C : G#1 06 . ... : ... .. . ... : ... .. . ... : F-# 07 F ... : C#3 07 . ...
ROW 0D : ... .. . ... : ... .. . ... : ... .. . ... : F-# 07 . ... : ... .. . ...
ROW 0E : A#1 06 . ... : ... .. . ... : ... .. . ... : F-# 07 F ... : ... .. . ...
ROW 0F : ... .. . ... : ... .. . ... : ... .. . ... : F-# 07 F ... : ... .. . ...
ROW 10 : F-1 06 . ... : F-2 00 8 ... : G-5 05 F 28F : F-# 07 F ... : ... .. . ...
ROW 11 : F-1 06 . ... : G-2 00 . ... : ... .. 0 ... : ... .. . ... : ... .. . ...
ROW 12 : F-1 06 . ... : G#2 00 6 ... : G-5 05 F 28F : F-# 07 F ... : ... .. . ...
ROW 13 : ... .. . ... : ... .. 0 ... : ... .. 0 ... : ... .. . ... : ... .. . ...
ROW 14 : C-2 06 . ... : G#2 00 5 ... : ... .. . ... : F-# 07 F ... : C#3 07 . ...
ROW 15 : ... .. . ... : ... .. 0 ... : ... .. . ... : ... .. . ... : ... .. . ...
ROW 16 : F-1 06 . ... : G#2 00 4 ... : ... .. . ... : F-# 07 F ... : ... .. . ...
ROW 17 : ... .. . ... : ... .. 0 ... : ... .. . ... : ... .. . ... : ... .. . ...
ROW 18 : A#1 06 . ... : G#2 00 3 ... : G-5 05 F 28F : F-# 07 F ... : ... .. . ...
ROW 19 : ... .. . ... : ... .. 0 ... : ... .. 0 ... : ... .. . ... : ... .. . ...
ROW 1A : F-1 06 . ... : G#2 00 2 ... : ... .. . ... : F-# 07 F ... : ... .. . ...
ROW 1B : ... .. . ... : ... .. 0 ... : ... .. . ... : ... .. . ... : ... .. . ...
ROW 1C : G#1 06 . ... : G#2 00 1 ... : ... .. . ... : F-# 07 F ... : C#3 07 . ...
ROW 1D : ... .. . ... : ... .. 0 ... : ... .. . ... : F-# 07 F ... : ... .. . ...
ROW 1E : A#1 06 . ... : ... .. . ... : ... .. . ... : F-# 07 F ... : ... .. . ...
ROW 1F : ... .. . ... : ... .. . ... : ... .. . ... : F-# 07 F ... : ... .. . ...
ROW 20 : D#1 06 . ... : ... .. . ... : G-5 05 F 28F : F-# 07 F ... : ... .. . ...
ROW 21 : D#1 06 . ... : ... .. . ... : ... .. 0 ... : ... .. . ... : ... .. . ...
ROW 22 : D#1 06 . ... : ... .. . ... : G-5 05 F 28F : F-# 07 F ... : ... .. . ...
ROW 23 : ... .. . ... : ... .. . ... : ... .. 0 ... : ... .. . ... : ... .. . ...
ROW 24 : C-2 06 . ... : ... .. . ... : ... .. . ... : F-# 07 F ... : C#3 07 . ...
ROW 25 : ... .. . ... : ... .. . ... : ... .. . ... : ... .. . ... : ... .. . ...
ROW 26 : D#1 06 . ... : ... .. . ... : ... .. . ... : F-# 07 F ... : ... .. . ...
ROW 27 : ... .. . ... : ... .. . ... : ... .. . ... : ... .. . ... : ... .. . ...
ROW 28 : A#1 06 . ... : ... .. . ... : G-5 05 F 28F : F-# 07 F ... : ... .. . ...
ROW 29 : ... .. . ... : ... .. . ... : ... .. 0 ... : ... .. . ... : ... .. . ...
ROW 2A : D#1 06 . ... : ... .. . ... : ... .. . ... : F-# 07 F ... : ... .. . ...
ROW 2B : ... .. . ... : ... .. . ... : ... .. . ... : ... .. . ... : ... .. . ...
ROW 2C : G#1 06 . ... : ... .. . ... : ... .. . ... : F-# 07 F ... : C#3 07 . ...
ROW 2D : ... .. . ... : ... .. . ... : ... .. . ... : F-# 07 F ... : ... .. . ...
ROW 2E : A#1 06 . ... : ... .. . ... : ... .. . ... : F-# 07 F ... : ... .. . ...
ROW 2F : ... .. . ... : ... .. . ... : ... .. . ... : F-# 07 F ... : ... .. . ...
ROW 30 : D#1 06 . ... : G-2 00 8 ... : G-5 05 F 28F : F-# 07 F ... : ... .. . ...
ROW 31 : D#1 06 . ... : G#2 00 . ... : ... .. 0 ... : ... .. . ... : ... .. . ...
ROW 32 : D#1 06 . ... : A#2 00 . ... : G-5 05 F 28F : F-# 07 F ... : ... .. . ...
ROW 33 : ... .. . ... : ... .. 0 ... : ... .. 0 ... : ... .. . ... : ... .. . ...
ROW 34 : C-2 06 . ... : A#2 00 6 ... : ... .. . ... : F-# 07 F ... : C#3 07 . ...
ROW 35 : ... .. . ... : ... .. 0 ... : ... .. . ... : ... .. . ... : ... .. . ...
ROW 36 : D#1 06 . ... : A#2 00 5 ... : ... .. . ... : F-# 07 F ... : ... .. . ...
ROW 37 : ... .. . ... : ... .. 0 ... : ... .. . ... : ... .. . ... : ... .. . ...
ROW 38 : A#1 06 . ... : A#2 00 4 ... : G-5 05 F 28F : F-# 07 F ... : C#3 07 . ...
ROW 39 : ... .. . ... : ... .. 0 ... : ... .. 0 ... : ... .. . ... : ... .. . ...
ROW 3A : D#1 06 . ... : A#2 00 3 ... : ... .. . ... : F-# 07 F ... : C#3 07 . ...
ROW 3B : ... .. . ... : ... .. 0 ... : ... .. . ... : ... .. . ... : ... .. . ...
ROW 3C : G#1 06 . ... : A#2 00 2 ... : G-5 05 F 28F : F-# 07 F ... : C#3 07 . ...
ROW 3D : ... .. . ... : ... .. 0 ... : ... .. 0 ... : F-# 07 F ... : C#3 07 . ...
ROW 3E : A#1 06 . ... : ... .. . ... : G-5 05 F 28F : F-# 07 F ... : C#3 07 . ...
ROW 3F : ... .. . ... : ... .. . ... : ... .. 0 ... : F-# 07 F ... : C#3 07 . ...

PATTERN 02
ROW 00 : C#1 06 6 ... : ... .. . ... : ... .. . ... : ... .. . ... : ... .. . ...
ROW 01 : C#1 06 . ... : ... .. . ... : ... .. . ... : ... .. . ... : ... .. . ...
ROW 02 : C#1 06 . ... : ... .. . ... : ... .. . ... : ... .. . ... : ... .. . ...
ROW 03 : ... .. . ... : ... .. . ... : ... .. . ... : ... .. . ... : ... .. . ...
ROW 04 : C-2 06 . ... : ... .. . ... : ... .. . ... : ... .. . ... : ... .. . ...
ROW 05 : ... .. . ... : ... .. . ... : ... .. . ... : ... .. . ... : ... .. . ...
ROW 06 : C#1 06 . ... : ... .. . ... : ... .. . ... : ... .. . ... : ... .. . ...
ROW 07 : ... .. . ... : ... .. . ... : ... .. . ... : ... .. . ... : ... .. . ...
ROW 08 : A#1 06 . ... : ... .. . ... : ... .. . ... : ... .. . ... : ... .. . ...
ROW 09 : ... .. . ... : ... .. . ... : ... .. . ... : ... .. . ... : ... .. . ...
ROW 0A : C#1 06 . ... : ... .. . ... : ... .. . ... : ... .. . ... : ... .. . ...
ROW 0B : ... .. . ... : ... .. . ... : ... .. . ... : ... .. . ... : ... .. . ...
ROW 0C : G#1 06 . ... : ... .. . ... : ... .. . ... : ... .. . ... : ... .. . ...
ROW 0D : ... .. . ... : ... .. . ... : ... .. . ... : ... .. . ... : ... .. . ...
ROW 0E : A#1 06 . ... : ... .. . ... : ... .. . ... : ... .. . ... : ... .. . ...
ROW 0F : ... .. . ... : ... .. . ... : ... .. . ... : ... .. . ... : ... .. . ...
ROW 10 : D#1 06 . ... : A#2 00 8 ... : ... .. . ... : ... .. . ... : ... .. . ...
ROW 11 : D#1 06 . ... : G#2 00 . ... : ... .. . ... : ... .. . ... : ... .. . ...
ROW 12 : D#1 06 . ... : G-2 00 . ... : ... .. . ... : ... .. . ... : ... .. . ...
ROW 13 : ... .. . ... : ... .. 0 ... : ... .. . ... : ... .. . ... : ... .. . ...
ROW 14 : C-2 06 . ... : G-2 00 6 ... : ... .. . ... : ... .. . ... : ... .. . ...
ROW 15 : ... .. . ... : ... .. 0 ... : ... .. . ... : ... .. . ... : ... .. . ...
ROW 16 : D#1 06 . ... : G-2 00 5 ... : ... .. . ... : ... .. . ... : ... .. . ...
ROW 17 : ... .. . ... : ... .. 0 ... : ... .. . ... : ... .. . ... : ... .. . ...
ROW 18 : A#1 06 . ... : G-2 00 4 ... : ... .. . ... : ... .. . ... : ... .. . ...
ROW 19 : ... .. . ... : ... .. 0 ... : ... .. . ... : ... .. . ... : ... .. . ...
ROW 1A : D#1 06 . ... : G-2 00 3 ... : ... .. . ... : ... .. . ... : ... .. . ...
ROW 1B : ... .. . ... : ... .. 0 ... : ... .. . ... : ... .. . ... : ... .. . ...
ROW 1C : G#1 06 . ... : G-2 00 2 ... : ... .. . ... : ... .. . ... : ... .. . ...
ROW 1D : ... .. . ... : ... .. 0 ... : ... .. . ... : ... .. . ... : ... .. . ...
ROW 1E : A#1 06 . ... : ... .. . ... : ... .. . ... : ... .. . ... : ... .. . ...
ROW 1F : ... .. . ... : ... .. . ... : ... .. . ... : ... .. . ... : ... .. . ...
ROW 20 : F-1 06 . ... : G#2 00 8 ... : ... .. . ... : ... .. . ... : ... .. . ...
ROW 21 : F-1 06 . ... : G-2 00 . ... : ... .. . ... : ... .. . ... : ... .. . ...
ROW 22 : F-1 06 . ... : F-2 00 . ... : ... .. . ... : ... .. . ... : ... .. . ...
ROW 23 : ... .. . ... : ... .. 0 ... : ... .. . ... : ... .. . ... : ... .. . ...
ROW 24 : C-2 06 . ... : F-2 00 6 ... : ... .. . ... : ... .. . ... : ... .. . ...
ROW 25 : ... .. . ... : ... .. 0 ... : ... .. . ... : ... .. . ... : ... .. . ...
ROW 26 : F-1 06 . ... : F-2 00 5 ... : ... .. . ... : ... .. . ... : ... .. . ...
ROW 27 : ... .. . ... : ... .. 0 ... : ... .. . ... : ... .. . ... : ... .. . ...
ROW 28 : A#1 06 . ... : F-2 00 4 ... : ... .. . ... : ... .. . ... : ... .. . ...
ROW 29 : ... .. . ... : ... .. 0 ... : ... .. . ... : ... .. . ... : ... .. . ...
ROW 2A : F-1 06 . ... : F-2 00 3 ... : ... .. . ... : ... .. . ... : ... .. . ...
ROW 2B : ... .. . ... : ... .. 0 ... : ... .. . ... : ... .. . ... : ... .. . ...
ROW 2C : G#1 06 . ... : F-2 00 2 ... : ... .. . ... : ... .. . ... : ... .. . ...
ROW 2D : ... .. . ... : ... .. 0 ... : ... .. . ... : ... .. . ... : ... .. . ...
ROW 2E : A#1 06 . ... : ... .. . ... : ... .. . ... : ... .. . ... : ... .. . ...
ROW 2F : ... .. . ... : ... .. . ... : ... .. . ... : ... .. . ... : ... .. . ...
ROW 30 : F-1 06 . ... : ... .. . ... : ... .. . ... : ... .. . ... : ... .. . ...
ROW 31 : F-1 06 . ... : ... .. . ... : ... .. . ... : ... .. . ... : ... .. . ...
ROW 32 : F-1 06 . ... : ... .. . ... : ... .. . ... : ... .. . ... : ... .. . ...
ROW 33 : ... .. . ... : ... .. . ... : ... .. . ... : ... .. . ... : ... .. . ...
ROW 34 : C-2 06 . ... : ... .. . ... : ... .. . ... : ... .. . ... : ... .. . ...
ROW 35 : ... .. . ... : ... .. . ... : ... .. . ... : ... .. . ... : ... .. . ...
ROW 36 : F-1 06 . ... : ... .. . ... : ... .. . ... : ... .. . ... : ... .. . ...
ROW 37 : ... .. . ... : ... .. . ... : ... .. . ... : ... .. . ... : ... .. . ...
ROW 38 : D#1 06 C ... : ... .. . ... : ... .. . ... : ... .. . ... : ... .. . ...
ROW 39 : ... .. . ... : ... .. . ... : ... .. . ... : ... .. . ... : ... .. . ...
ROW 3A : D#2 06 . ... : ... .. . ... : ... .. . ... : ... .. . ... : ... .. . ...
ROW 3B : ... .. . ... : ... .. . ... : ... .. . ... : ... .. . ... : ... .. . ...
ROW 3C : E-1 06 . ... : ... .. . ... : ... .. . ... : ... .. . ... : ... .. . ...
ROW 3D : ... .. . ... : ... .. . ... : ... .. . ... : ... .. . ... : ... .. . ...
ROW 3E : E-2 06 . ... : ... .. . ... : ... .. . ... : ... .. . ... : ... .. . ...
ROW 3F : ... .. . B01 : ... .. . ... : ... .. . ... : ... .. . ... : ... .. . ...

TRACK  64   6 180 "Cartridge"
COLUMNS : 1 1 1 1 1

ORDER 00 : 00 00 00 00 00
ORDER 01 : 01 00 00 00 00

PATTERN 00
ROW 00 : E-3 01 F ... : ... .. . ... : ... .. . ... : ... .. . ... : ... .. . ...
ROW 01 : F-3 01 . ... : ... .. . ... : ... .. . ... : ... .. . ... : ... .. . ...
ROW 02 : G-3 01 . ... : ... .. . ... : ... .. . ... : ... .. . ... : ... .. . ...
ROW 03 : ... .. 0 ... : ... .. . ... : ... .. . ... : ... .. . ... : ... .. . ...
ROW 04 : ... .. . B01 : ... .. . ... : ... .. . ... : ... .. . ... : ... .. . ...
ROW 05 : ... .. . ... : ... .. . ... : ... .. . ... : ... .. . ... : ... .. . ...
ROW 06 : ... .. . ... : ... .. . ... : ... .. . ... : ... .. . ... : ... .. . ...
ROW 07 : ... .. . ... : ... .. . ... : ... .. . ... : ... .. . ... : ... .. . ...
ROW 08 : ... .. . ... : ... .. . ... : ... .. . ... : ... .. . ... : ... .. . ...
ROW 09 : ... .. . ... : ... .. . ... : ... .. . ... : ... .. . ... : ... .. . ...
ROW 0A : ... .. . ... : ... .. . ... : ... .. . ... : ... .. . ... : ... .. . ...
ROW 0B : ... .. . ... : ... .. . ... : ... .. . ... : ... .. . ... : ... .. . ...
ROW 0C : ... .. . ... : ... .. . ... : ... .. . ... : ... .. . ... : ... .. . ...
ROW 0D : ... .. . ... : ... .. . ... : ... .. . ... : ... .. . ... : ... .. . ...
ROW 0E : ... .. . ... : ... .. . ... : ... .. . ... : ... .. . ... : ... .. . ...
ROW 0F : ... .. . ... : ... .. . ... : ... .. . ... : ... .. . ... : ... .. . ...
ROW 10 : ... .. . ... : ... .. . ... : ... .. . ... : ... .. . ... : ... .. . ...
ROW 11 : ... .. . ... : ... .. . ... : ... .. . ... : ... .. . ... : ... .. . ...
ROW 12 : ... .. . ... : ... .. . ... : ... .. . ... : ... .. . ... : ... .. . ...
ROW 13 : ... .. . ... : ... .. . ... : ... .. . ... : ... .. . ... : ... .. . ...
ROW 14 : ... .. . ... : ... .. . ... : ... .. . ... : ... .. . ... : ... .. . ...
ROW 15 : ... .. . ... : ... .. . ... : ... .. . ... : ... .. . ... : ... .. . ...
ROW 16 : ... .. . ... : ... .. . ... : ... .. . ... : ... .. . ... : ... .. . ...
ROW 17 : ... .. . ... : ... .. . ... : ... .. . ... : ... .. . ... : ... .. . ...
ROW 18 : ... .. . ... : ... .. . ... : ... .. . ... : ... .. . ... : ... .. . ...
ROW 19 : ... .. . ... : ... .. . ... : ... .. . ... : ... .. . ... : ... .. . ...
ROW 1A : ... .. . ... : ... .. . ... : ... .. . ... : ... .. . ... : ... .. . ...
ROW 1B : ... .. . ... : ... .. . ... : ... .. . ... : ... .. . ... : ... .. . ...
ROW 1C : ... .. . ... : ... .. . ... : ... .. . ... : ... .. . ... : ... .. . ...
ROW 1D : ... .. . ... : ... .. . ... : ... .. . ... : ... .. . ... : ... .. . ...
ROW 1E : ... .. . ... : ... .. . ... : ... .. . ... : ... .. . ... : ... .. . ...
ROW 1F : ... .. . ... : ... .. . ... : ... .. . ... : ... .. . ... : ... .. . ...
ROW 20 : ... .. . ... : ... .. . ... : ... .. . ... : ... .. . ... : ... .. . ...
ROW 21 : ... .. . ... : ... .. . ... : ... .. . ... : ... .. . ... : ... .. . ...
ROW 22 : ... .. . ... : ... .. . ... : ... .. . ... : ... .. . ... : ... .. . ...
ROW 23 : ... .. . ... : ... .. . ... : ... .. . ... : ... .. . ... : ... .. . ...
ROW 24 : ... .. . ... : ... .. . ... : ... .. . ... : ... .. . ... : ... .. . ...
ROW 25 : ... .. . ... : ... .. . ... : ... .. . ... : ... .. . ... : ... .. . ...
ROW 26 : ... .. . ... : ... .. . ... : ... .. . ... : ... .. . ... : ... .. . ...
ROW 27 : ... .. . ... : ... .. . ... : ... .. . ... : ... .. . ... : ... .. . ...
ROW 28 : ... .. . ... : ... .. . ... : ... .. . ... : ... .. . ... : ... .. . ...
ROW 29 : ... .. . ... : ... .. . ... : ... .. . ... : ... .. . ... : ... .. . ...
ROW 2A : ... .. . ... : ... .. . ... : ... .. . ... : ... .. . ... : ... .. . ...
ROW 2B : ... .. . ... : ... .. . ... : ... .. . ... : ... .. . ... : ... .. . ...
ROW 2C : ... .. . ... : ... .. . ... : ... .. . ... : ... .. . ... : ... .. . ...
ROW 2D : ... .. . ... : ... .. . ... : ... .. . ... : ... .. . ... : ... .. . ...
ROW 2E : ... .. . ... : ... .. . ... : ... .. . ... : ... .. . ... : ... .. . ...
ROW 2F : ... .. . ... : ... .. . ... : ... .. . ... : ... .. . ... : ... .. . ...
ROW 30 : ... .. . ... : ... .. . ... : ... .. . ... : ... .. . ... : ... .. . ...
ROW 31 : ... .. . ... : ... .. . ... : ... .. . ... : ... .. . ... : ... .. . ...
ROW 32 : ... .. . ... : ... .. . ... : ... .. . ... : ... .. . ... : ... .. . ...
ROW 33 : ... .. . ... : ... .. . ... : ... .. . ... : ... .. . ... : ... .. . ...
ROW 34 : ... .. . ... : ... .. . ... : ... .. . ... : ... .. . ... : ... .. . ...
ROW 35 : ... .. . ... : ... .. . ... : ... .. . ... : ... .. . ... : ... .. . ...
ROW 36 : ... .. . ... : ... .. . ... : ... .. . ... : ... .. . ... : ... .. . ...
ROW 37 : ... .. . ... : ... .. . ... : ... .. . ... : ... .. . ... : ... .. . ...
ROW 38 : ... .. . ... : ... .. . ... : ... .. . ... : ... .. . ... : ... .. . ...
ROW 39 : ... .. . ... : ... .. . ... : ... .. . ... : ... .. . ... : ... .. . ...
ROW 3A : ... .. . ... : ... .. . ... : ... .. . ... : ... .. . ... : ... .. . ...
ROW 3B : ... .. . ... : ... .. . ... : ... .. . ... : ... .. . ... : ... .. . ...
ROW 3C : ... .. . ... : ... .. . ... : ... .. . ... : ... .. . ... : ... .. . ...
ROW 3D : ... .. . ... : ... .. . ... : ... .. . ... : ... .. . ... : ... .. . ...
ROW 3E : ... .. . ... : ... .. . ... : ... .. . ... : ... .. . ... : ... .. . ...
ROW 3F : ... .. . ... : ... .. . ... : ... .. . ... : ... .. . ... : ... .. . ...

PATTERN 01
ROW 00 : ... .. . ... : ... .. . ... : ... .. . ... : ... .. . ... : ... .. . ...
ROW 01 : ... .. . ... : ... .. . ... : ... .. . ... : ... .. . ... : ... .. . ...
ROW 02 : ... .. . ... : ... .. . ... : ... .. . ... : ... .. . ... : ... .. . ...
ROW 03 : ... .. . ... : ... .. . ... : ... .. . ... : ... .. . ... : ... .. . ...
ROW 04 : ... .. . ... : ... .. . ... : ... .. . ... : ... .. . ... : ... .. . ...
ROW 05 : ... .. . ... : ... .. . ... : ... .. . ... : ... .. . ... : ... .. . ...
ROW 06 : ... .. . ... : ... .. . ... : ... .. . ... : ... .. . ... : ... .. . ...
ROW 07 : ... .. . ... : ... .. . ... : ... .. . ... : ... .. . ... : ... .. . ...
ROW 08 : ... .. . ... : ... .. . ... : ... .. . ... : ... .. . ... : ... .. . ...
ROW 09 : ... .. . ... : ... .. . ... : ... .. . ... : ... .. . ... : ... .. . ...
ROW 0A : ... .. . ... : ... .. . ... : ... .. . ... : ... .. . ... : ... .. . ...
ROW 0B : ... .. . ... : ... .. . ... : ... .. . ... : ... .. . ... : ... .. . ...
ROW 0C : ... .. . ... : ... .. . ... : ... .. . ... : ... .. . ... : ... .. . ...
ROW 0D : ... .. . ... : ... .. . ... : ... .. . ... : ... .. . ... : ... .. . ...
ROW 0E : ... .. . ... : ... .. . ... : ... .. . ... : ... .. . ... : ... .. . ...
ROW 0F : ... .. . ... : ... .. . ... : ... .. . ... : ... .. . ... : ... .. . ...
ROW 10 : ... .. . B01 : ... .. . ... : ... .. . ... : ... .. . ... : ... .. . ...
ROW 11 : ... .. . ... : ... .. . ... : ... .. . ... : ... .. . ... : ... .. . ...
ROW 12 : ... .. . ... : ... .. . ... : ... .. . ... : ... .. . ... : ... .. . ...
ROW 13 : ... .. . ... : ... .. . ... : ... .. . ... : ... .. . ... : ... .. . ...
ROW 14 : ... .. . ... : ... .. . ... : ... .. . ... : ... .. . ... : ... .. . ...
ROW 15 : ... .. . ... : ... .. . ... : ... .. . ... : ... .. . ... : ... .. . ...
ROW 16 : ... .. . ... : ... .. . ... : ... .. . ... : ... .. . ... : ... .. . ...
ROW 17 : ... .. . ... : ... .. . ... : ... .. . ... : ... .. . ... : ... .. . ...
ROW 18 : ... .. . ... : ... .. . ... : ... .. . ... : ... .. . ... : ... .. . ...
ROW 19 : ... .. . ... : ... .. . ... : ... .. . ... : ... .. . ... : ... .. . ...
ROW 1A : ... .. . ... : ... .. . ... : ... .. . ... : ... .. . ... : ... .. . ...
ROW 1B : ... .. . ... : ... .. . ... : ... .. . ... : ... .. . ... : ... .. . ...
ROW 1C : ... .. . ... : ... .. . ... : ... .. . ... : ... .. . ... : ... .. . ...
ROW 1D : ... .. . ... : ... .. . ... : ... .. . ... : ... .. . ... : ... .. . ...
ROW 1E : ... .. . ... : ... .. . ... : ... .. . ... : ... .. . ... : ... .. . ...
ROW 1F : ... .. . ... : ... .. . ... : ... .. . ... : ... .. . ... : ... .. . ...
ROW 20 : ... .. . ... : ... .. . ... : ... .. . ... : ... .. . ... : ... .. . ...
ROW 21 : ... .. . ... : ... .. . ... : ... .. . ... : ... .. . ... : ... .. . ...
ROW 22 : ... .. . ... : ... .. . ... : ... .. . ... : ... .. . ... : ... .. . ...
ROW 23 : ... .. . ... : ... .. . ... : ... .. . ... : ... .. . ... : ... .. . ...
ROW 24 : ... .. . ... : ... .. . ... : ... .. . ... : ... .. . ... : ... .. . ...
ROW 25 : ... .. . ... : ... .. . ... : ... .. . ... : ... .. . ... : ... .. . ...
ROW 26 : ... .. . ... : ... .. . ... : ... .. . ... : ... .. . ... : ... .. . ...
ROW 27 : ... .. . ... : ... .. . ... : ... .. . ... : ... .. . ... : ... .. . ...
ROW 28 : ... .. . ... : ... .. . ... : ... .. . ... : ... .. . ... : ... .. . ...
ROW 29 : ... .. . ... : ... .. . ... : ... .. . ... : ... .. . ... : ... .. . ...
ROW 2A : ... .. . ... : ... .. . ... : ... .. . ... : ... .. . ... : ... .. . ...
ROW 2B : ... .. . ... : ... .. . ... : ... .. . ... : ... .. . ... : ... .. . ...
ROW 2C : ... .. . ... : ... .. . ... : ... .. . ... : ... .. . ... : ... .. . ...
ROW 2D : ... .. . ... : ... .. . ... : ... .. . ... : ... .. . ... : ... .. . ...
ROW 2E : ... .. . ... : ... .. . ... : ... .. . ... : ... .. . ... : ... .. . ...
ROW 2F : ... .. . ... : ... .. . ... : ... .. . ... : ... .. . ... : ... .. . ...
ROW 30 : ... .. . ... : ... .. . ... : ... .. . ... : ... .. . ... : ... .. . ...
ROW 31 : ... .. . ... : ... .. . ... : ... .. . ... : ... .. . ... : ... .. . ...
ROW 32 : ... .. . ... : ... .. . ... : ... .. . ... : ... .. . ... : ... .. . ...
ROW 33 : ... .. . ... : ... .. . ... : ... .. . ... : ... .. . ... : ... .. . ...
ROW 34 : ... .. . ... : ... .. . ... : ... .. . ... : ... .. . ... : ... .. . ...
ROW 35 : ... .. . ... : ... .. . ... : ... .. . ... : ... .. . ... : ... .. . ...
ROW 36 : ... .. . ... : ... .. . ... : ... .. . ... : ... .. . ... : ... .. . ...
ROW 37 : ... .. . ... : ... .. . ... : ... .. . ... : ... .. . ... : ... .. . ...
ROW 38 : ... .. . ... : ... .. . ... : ... .. . ... : ... .. . ... : ... .. . ...
ROW 39 : ... .. . ... : ... .. . ... : ... .. . ... : ... .. . ... : ... .. . ...
ROW 3A : ... .. . ... : ... .. . ... : ... .. . ... : ... .. . ... : ... .. . ...
ROW 3B : ... .. . ... : ... .. . ... : ... .. . ... : ... .. . ... : ... .. . ...
ROW 3C : ... .. . ... : ... .. . ... : ... .. . ... : ... .. . ... : ... .. . ...
ROW 3D : ... .. . ... : ... .. . ... : ... .. . ... : ... .. . ... : ... .. . ...
ROW 3E : ... .. . ... : ... .. . ... : ... .. . ... : ... .. . ... : ... .. . ...
ROW 3F : ... .. . ... : ... .. . ... : ... .. . ... : ... .. . ... : ... .. . ...

# End of export
